solid DRC10_2P4X1P65
facet normal 0 0 -1
  outer loop
    vertex -47.21888 39.37008 39.36908
    vertex -44.3244060961796 39.9458266565276 39.36908
    vertex -44.2677 39.37008 39.36908
  endloop
endfacet
facet normal 0 0 -1
  outer loop
    vertex -47.21888 39.37008 39.36908
    vertex -44.4923452012433 40.4994476919272 39.36908
    vertex -44.3244060961796 39.9458266565276 39.36908
  endloop
endfacet
facet normal 0 0 -1
  outer loop
    vertex -47.21888 39.37008 39.36908
    vertex -44.765063509565 41.0096677602828 39.36908
    vertex -44.4923452012433 40.4994476919272 39.36908
  endloop
endfacet
facet normal 0 0 -1
  outer loop
    vertex -47.21888 39.37008 39.36908
    vertex -45.1320806094979 41.4568793905021 39.36908
    vertex -44.765063509565 41.0096677602828 39.36908
  endloop
endfacet
facet normal 0 0 -1
  outer loop
    vertex -47.21888 39.37008 39.36908
    vertex -45.5792922397172 41.823896490435 39.36908
    vertex -45.1320806094979 41.4568793905021 39.36908
  endloop
endfacet
facet normal 0 0 -1
  outer loop
    vertex -47.21888 39.37008 39.36908
    vertex -46.0895123080728 42.0966147987567 39.36908
    vertex -45.5792922397172 41.823896490435 39.36908
  endloop
endfacet
facet normal 0 0 -1
  outer loop
    vertex -47.21888 39.37008 39.36908
    vertex -46.6431333434724 42.2645539038204 39.36908
    vertex -46.0895123080728 42.0966147987567 39.36908
  endloop
endfacet
facet normal 0 0 -1
  outer loop
    vertex -47.21888 39.37008 39.36908
    vertex -47.21888 42.32126 39.36908
    vertex -46.6431333434724 42.2645539038204 39.36908
  endloop
endfacet
facet normal 0 0 -1
  outer loop
    vertex -47.21888 39.37008 39.36908
    vertex -47.7946266565276 42.2645539038204 39.36908
    vertex -47.21888 42.32126 39.36908
  endloop
endfacet
facet normal 0 0 -1
  outer loop
    vertex -47.21888 39.37008 39.36908
    vertex -48.3482476919272 42.0966147987567 39.36908
    vertex -47.7946266565276 42.2645539038204 39.36908
  endloop
endfacet
facet normal 0 0 -1
  outer loop
    vertex -47.21888 39.37008 39.36908
    vertex -48.8584677602828 41.823896490435 39.36908
    vertex -48.3482476919272 42.0966147987567 39.36908
  endloop
endfacet
facet normal 0 0 -1
  outer loop
    vertex -47.21888 39.37008 39.36908
    vertex -49.3056793905021 41.4568793905021 39.36908
    vertex -48.8584677602828 41.823896490435 39.36908
  endloop
endfacet
facet normal 0 0 -1
  outer loop
    vertex -47.21888 39.37008 39.36908
    vertex -49.672696490435 41.0096677602828 39.36908
    vertex -49.3056793905021 41.4568793905021 39.36908
  endloop
endfacet
facet normal 0 0 -1
  outer loop
    vertex -47.21888 39.37008 39.36908
    vertex -49.9454147987567 40.4994476919272 39.36908
    vertex -49.672696490435 41.0096677602828 39.36908
  endloop
endfacet
facet normal 0 0 -1
  outer loop
    vertex -47.21888 39.37008 39.36908
    vertex -50.1133539038204 39.9458266565276 39.36908
    vertex -49.9454147987567 40.4994476919272 39.36908
  endloop
endfacet
facet normal 0 0 -1
  outer loop
    vertex -47.21888 39.37008 39.36908
    vertex -50.17006 39.37008 39.36908
    vertex -50.1133539038204 39.9458266565276 39.36908
  endloop
endfacet
facet normal 0 0 -1
  outer loop
    vertex -47.21888 39.37008 39.36908
    vertex -50.1133539038204 38.7943333434724 39.36908
    vertex -50.17006 39.37008 39.36908
  endloop
endfacet
facet normal 0 0 -1
  outer loop
    vertex -47.21888 39.37008 39.36908
    vertex -49.9454147987567 38.2407123080728 39.36908
    vertex -50.1133539038204 38.7943333434724 39.36908
  endloop
endfacet
facet normal 0 0 -1
  outer loop
    vertex -47.21888 39.37008 39.36908
    vertex -49.672696490435 37.7304922397172 39.36908
    vertex -49.9454147987567 38.2407123080728 39.36908
  endloop
endfacet
facet normal 0 0 -1
  outer loop
    vertex -47.21888 39.37008 39.36908
    vertex -49.3056793905021 37.2832806094979 39.36908
    vertex -49.672696490435 37.7304922397172 39.36908
  endloop
endfacet
facet normal 0 0 -1
  outer loop
    vertex -47.21888 39.37008 39.36908
    vertex -48.8584677602828 36.916263509565 39.36908
    vertex -49.3056793905021 37.2832806094979 39.36908
  endloop
endfacet
facet normal 0 0 -1
  outer loop
    vertex -47.21888 39.37008 39.36908
    vertex -48.3482476919272 36.6435452012433 39.36908
    vertex -48.8584677602828 36.916263509565 39.36908
  endloop
endfacet
facet normal 0 0 -1
  outer loop
    vertex -47.21888 39.37008 39.36908
    vertex -47.7946266565276 36.4756060961796 39.36908
    vertex -48.3482476919272 36.6435452012433 39.36908
  endloop
endfacet
facet normal 0 0 -1
  outer loop
    vertex -47.21888 39.37008 39.36908
    vertex -47.21888 36.4189 39.36908
    vertex -47.7946266565276 36.4756060961796 39.36908
  endloop
endfacet
facet normal 0 0 -1
  outer loop
    vertex -47.21888 39.37008 39.36908
    vertex -46.6431333434724 36.4756060961796 39.36908
    vertex -47.21888 36.4189 39.36908
  endloop
endfacet
facet normal 0 0 -1
  outer loop
    vertex -47.21888 39.37008 39.36908
    vertex -46.0895123080728 36.6435452012433 39.36908
    vertex -46.6431333434724 36.4756060961796 39.36908
  endloop
endfacet
facet normal 0 0 -1
  outer loop
    vertex -47.21888 39.37008 39.36908
    vertex -45.5792922397172 36.916263509565 39.36908
    vertex -46.0895123080728 36.6435452012433 39.36908
  endloop
endfacet
facet normal 0 0 -1
  outer loop
    vertex -47.21888 39.37008 39.36908
    vertex -45.1320806094979 37.2832806094979 39.36908
    vertex -45.5792922397172 36.916263509565 39.36908
  endloop
endfacet
facet normal 0 0 -1
  outer loop
    vertex -47.21888 39.37008 39.36908
    vertex -44.765063509565 37.7304922397172 39.36908
    vertex -45.1320806094979 37.2832806094979 39.36908
  endloop
endfacet
facet normal 0 0 -1
  outer loop
    vertex -47.21888 39.37008 39.36908
    vertex -44.4923452012433 38.2407123080728 39.36908
    vertex -44.765063509565 37.7304922397172 39.36908
  endloop
endfacet
facet normal 0 0 -1
  outer loop
    vertex -47.21888 39.37008 39.36908
    vertex -44.3244060961796 38.7943333434724 39.36908
    vertex -44.4923452012433 38.2407123080728 39.36908
  endloop
endfacet
facet normal 0 0 -1
  outer loop
    vertex -47.21888 39.37008 39.36908
    vertex -44.2677 39.37008 39.36908
    vertex -44.3244060961796 38.7943333434724 39.36908
  endloop
endfacet
facet normal 0 0 1
  outer loop
    vertex -47.21888 39.37008 39.46908
    vertex -44.2677 39.37008 39.46908
    vertex -44.3244060961796 39.9458266565276 39.46908
  endloop
endfacet
facet normal 0 0 1
  outer loop
    vertex -47.21888 39.37008 39.46908
    vertex -44.3244060961796 39.9458266565276 39.46908
    vertex -44.4923452012433 40.4994476919272 39.46908
  endloop
endfacet
facet normal 0 0 1
  outer loop
    vertex -47.21888 39.37008 39.46908
    vertex -44.4923452012433 40.4994476919272 39.46908
    vertex -44.765063509565 41.0096677602828 39.46908
  endloop
endfacet
facet normal 0 0 1
  outer loop
    vertex -47.21888 39.37008 39.46908
    vertex -44.765063509565 41.0096677602828 39.46908
    vertex -45.1320806094979 41.4568793905021 39.46908
  endloop
endfacet
facet normal 0 0 1
  outer loop
    vertex -47.21888 39.37008 39.46908
    vertex -45.1320806094979 41.4568793905021 39.46908
    vertex -45.5792922397172 41.823896490435 39.46908
  endloop
endfacet
facet normal 0 0 1
  outer loop
    vertex -47.21888 39.37008 39.46908
    vertex -45.5792922397172 41.823896490435 39.46908
    vertex -46.0895123080728 42.0966147987567 39.46908
  endloop
endfacet
facet normal 0 0 1
  outer loop
    vertex -47.21888 39.37008 39.46908
    vertex -46.0895123080728 42.0966147987567 39.46908
    vertex -46.6431333434724 42.2645539038204 39.46908
  endloop
endfacet
facet normal 0 0 1
  outer loop
    vertex -47.21888 39.37008 39.46908
    vertex -46.6431333434724 42.2645539038204 39.46908
    vertex -47.21888 42.32126 39.46908
  endloop
endfacet
facet normal 0 0 1
  outer loop
    vertex -47.21888 39.37008 39.46908
    vertex -47.21888 42.32126 39.46908
    vertex -47.7946266565276 42.2645539038204 39.46908
  endloop
endfacet
facet normal 0 0 1
  outer loop
    vertex -47.21888 39.37008 39.46908
    vertex -47.7946266565276 42.2645539038204 39.46908
    vertex -48.3482476919272 42.0966147987567 39.46908
  endloop
endfacet
facet normal 0 0 1
  outer loop
    vertex -47.21888 39.37008 39.46908
    vertex -48.3482476919272 42.0966147987567 39.46908
    vertex -48.8584677602828 41.823896490435 39.46908
  endloop
endfacet
facet normal 0 0 1
  outer loop
    vertex -47.21888 39.37008 39.46908
    vertex -48.8584677602828 41.823896490435 39.46908
    vertex -49.3056793905021 41.4568793905021 39.46908
  endloop
endfacet
facet normal 0 0 1
  outer loop
    vertex -47.21888 39.37008 39.46908
    vertex -49.3056793905021 41.4568793905021 39.46908
    vertex -49.672696490435 41.0096677602828 39.46908
  endloop
endfacet
facet normal 0 0 1
  outer loop
    vertex -47.21888 39.37008 39.46908
    vertex -49.672696490435 41.0096677602828 39.46908
    vertex -49.9454147987567 40.4994476919272 39.46908
  endloop
endfacet
facet normal 0 0 1
  outer loop
    vertex -47.21888 39.37008 39.46908
    vertex -49.9454147987567 40.4994476919272 39.46908
    vertex -50.1133539038204 39.9458266565276 39.46908
  endloop
endfacet
facet normal 0 0 1
  outer loop
    vertex -47.21888 39.37008 39.46908
    vertex -50.1133539038204 39.9458266565276 39.46908
    vertex -50.17006 39.37008 39.46908
  endloop
endfacet
facet normal 0 0 1
  outer loop
    vertex -47.21888 39.37008 39.46908
    vertex -50.17006 39.37008 39.46908
    vertex -50.1133539038204 38.7943333434724 39.46908
  endloop
endfacet
facet normal 0 0 1
  outer loop
    vertex -47.21888 39.37008 39.46908
    vertex -50.1133539038204 38.7943333434724 39.46908
    vertex -49.9454147987567 38.2407123080728 39.46908
  endloop
endfacet
facet normal 0 0 1
  outer loop
    vertex -47.21888 39.37008 39.46908
    vertex -49.9454147987567 38.2407123080728 39.46908
    vertex -49.672696490435 37.7304922397172 39.46908
  endloop
endfacet
facet normal 0 0 1
  outer loop
    vertex -47.21888 39.37008 39.46908
    vertex -49.672696490435 37.7304922397172 39.46908
    vertex -49.3056793905021 37.2832806094979 39.46908
  endloop
endfacet
facet normal 0 0 1
  outer loop
    vertex -47.21888 39.37008 39.46908
    vertex -49.3056793905021 37.2832806094979 39.46908
    vertex -48.8584677602828 36.916263509565 39.46908
  endloop
endfacet
facet normal 0 0 1
  outer loop
    vertex -47.21888 39.37008 39.46908
    vertex -48.8584677602828 36.916263509565 39.46908
    vertex -48.3482476919272 36.6435452012433 39.46908
  endloop
endfacet
facet normal 0 0 1
  outer loop
    vertex -47.21888 39.37008 39.46908
    vertex -48.3482476919272 36.6435452012433 39.46908
    vertex -47.7946266565276 36.4756060961796 39.46908
  endloop
endfacet
facet normal 0 0 1
  outer loop
    vertex -47.21888 39.37008 39.46908
    vertex -47.7946266565276 36.4756060961796 39.46908
    vertex -47.21888 36.4189 39.46908
  endloop
endfacet
facet normal 0 0 1
  outer loop
    vertex -47.21888 39.37008 39.46908
    vertex -47.21888 36.4189 39.46908
    vertex -46.6431333434724 36.4756060961796 39.46908
  endloop
endfacet
facet normal 0 0 1
  outer loop
    vertex -47.21888 39.37008 39.46908
    vertex -46.6431333434724 36.4756060961796 39.46908
    vertex -46.0895123080728 36.6435452012433 39.46908
  endloop
endfacet
facet normal 0 0 1
  outer loop
    vertex -47.21888 39.37008 39.46908
    vertex -46.0895123080728 36.6435452012433 39.46908
    vertex -45.5792922397172 36.916263509565 39.46908
  endloop
endfacet
facet normal 0 0 1
  outer loop
    vertex -47.21888 39.37008 39.46908
    vertex -45.5792922397172 36.916263509565 39.46908
    vertex -45.1320806094979 37.2832806094979 39.46908
  endloop
endfacet
facet normal 0 0 1
  outer loop
    vertex -47.21888 39.37008 39.46908
    vertex -45.1320806094979 37.2832806094979 39.46908
    vertex -44.765063509565 37.7304922397172 39.46908
  endloop
endfacet
facet normal 0 0 1
  outer loop
    vertex -47.21888 39.37008 39.46908
    vertex -44.765063509565 37.7304922397172 39.46908
    vertex -44.4923452012433 38.2407123080728 39.46908
  endloop
endfacet
facet normal 0 0 1
  outer loop
    vertex -47.21888 39.37008 39.46908
    vertex -44.4923452012433 38.2407123080728 39.46908
    vertex -44.3244060961796 38.7943333434724 39.46908
  endloop
endfacet
facet normal 0 0 1
  outer loop
    vertex -47.21888 39.37008 39.46908
    vertex -44.3244060961796 38.7943333434724 39.46908
    vertex -44.2677 39.37008 39.46908
  endloop
endfacet
facet normal .995184726672196 9.80171403295685E-02 0
  outer loop
    vertex -44.2677 39.37008 39.36908
    vertex -44.3244060961796 39.9458266565276 39.46908
    vertex -44.2677 39.37008 39.46908
  endloop
endfacet
facet normal .956940335732223 .290284677254415 0
  outer loop
    vertex -44.3244060961796 39.9458266565276 39.36908
    vertex -44.4923452012433 40.4994476919272 39.46908
    vertex -44.3244060961796 39.9458266565276 39.46908
  endloop
endfacet
facet normal .881921264348314 .471396736826075 0
  outer loop
    vertex -44.4923452012433 40.4994476919272 39.36908
    vertex -44.765063509565 41.0096677602828 39.46908
    vertex -44.4923452012433 40.4994476919272 39.46908
  endloop
endfacet
facet normal .773010453362732 .634393284163651 0
  outer loop
    vertex -44.765063509565 41.0096677602828 39.36908
    vertex -45.1320806094979 41.4568793905021 39.46908
    vertex -44.765063509565 41.0096677602828 39.46908
  endloop
endfacet
facet normal .634393284163651 .773010453362732 0
  outer loop
    vertex -45.1320806094979 41.4568793905021 39.36908
    vertex -45.5792922397172 41.823896490435 39.46908
    vertex -45.1320806094979 41.4568793905021 39.46908
  endloop
endfacet
facet normal .471396736826075 .881921264348314 0
  outer loop
    vertex -45.5792922397172 41.823896490435 39.36908
    vertex -46.0895123080728 42.0966147987567 39.46908
    vertex -45.5792922397172 41.823896490435 39.46908
  endloop
endfacet
facet normal .290284677254415 .956940335732223 0
  outer loop
    vertex -46.0895123080728 42.0966147987567 39.36908
    vertex -46.6431333434724 42.2645539038204 39.46908
    vertex -46.0895123080728 42.0966147987567 39.46908
  endloop
endfacet
facet normal 9.80171403295685E-02 .995184726672196 0
  outer loop
    vertex -46.6431333434724 42.2645539038204 39.36908
    vertex -47.21888 42.32126 39.46908
    vertex -46.6431333434724 42.2645539038204 39.46908
  endloop
endfacet
facet normal -9.80171403295685E-02 .995184726672196 0
  outer loop
    vertex -47.21888 42.32126 39.36908
    vertex -47.7946266565276 42.2645539038204 39.46908
    vertex -47.21888 42.32126 39.46908
  endloop
endfacet
facet normal -.290284677254415 .956940335732223 0
  outer loop
    vertex -47.7946266565276 42.2645539038204 39.36908
    vertex -48.3482476919272 42.0966147987567 39.46908
    vertex -47.7946266565276 42.2645539038204 39.46908
  endloop
endfacet
facet normal -.471396736826075 .881921264348314 0
  outer loop
    vertex -48.3482476919272 42.0966147987567 39.36908
    vertex -48.8584677602828 41.823896490435 39.46908
    vertex -48.3482476919272 42.0966147987567 39.46908
  endloop
endfacet
facet normal -.634393284163651 .773010453362732 0
  outer loop
    vertex -48.8584677602828 41.823896490435 39.36908
    vertex -49.3056793905021 41.4568793905021 39.46908
    vertex -48.8584677602828 41.823896490435 39.46908
  endloop
endfacet
facet normal -.773010453362726 .634393284163658 0
  outer loop
    vertex -49.3056793905021 41.4568793905021 39.36908
    vertex -49.672696490435 41.0096677602828 39.46908
    vertex -49.3056793905021 41.4568793905021 39.46908
  endloop
endfacet
facet normal -.881921264348314 .471396736826075 0
  outer loop
    vertex -49.672696490435 41.0096677602828 39.36908
    vertex -49.9454147987567 40.4994476919272 39.46908
    vertex -49.672696490435 41.0096677602828 39.46908
  endloop
endfacet
facet normal -.956940335732223 .290284677254415 0
  outer loop
    vertex -49.9454147987567 40.4994476919272 39.36908
    vertex -50.1133539038204 39.9458266565276 39.46908
    vertex -49.9454147987567 40.4994476919272 39.46908
  endloop
endfacet
facet normal -.995184726672197 9.80171403295563E-02 0
  outer loop
    vertex -50.1133539038204 39.9458266565276 39.36908
    vertex -50.17006 39.37008 39.46908
    vertex -50.1133539038204 39.9458266565276 39.46908
  endloop
endfacet
facet normal -.995184726672197 -9.80171403295563E-02 0
  outer loop
    vertex -50.17006 39.37008 39.36908
    vertex -50.1133539038204 38.7943333434724 39.46908
    vertex -50.17006 39.37008 39.46908
  endloop
endfacet
facet normal -.956940335732223 -.290284677254415 0
  outer loop
    vertex -50.1133539038204 38.7943333434724 39.36908
    vertex -49.9454147987567 38.2407123080728 39.46908
    vertex -50.1133539038204 38.7943333434724 39.46908
  endloop
endfacet
facet normal -.881921264348314 -.471396736826075 0
  outer loop
    vertex -49.9454147987567 38.2407123080728 39.36908
    vertex -49.672696490435 37.7304922397172 39.46908
    vertex -49.9454147987567 38.2407123080728 39.46908
  endloop
endfacet
facet normal -.773010453362726 -.634393284163658 0
  outer loop
    vertex -49.672696490435 37.7304922397172 39.36908
    vertex -49.3056793905021 37.2832806094979 39.46908
    vertex -49.672696490435 37.7304922397172 39.46908
  endloop
endfacet
facet normal -.634393284163658 -.773010453362726 0
  outer loop
    vertex -49.3056793905021 37.2832806094979 39.36908
    vertex -48.8584677602828 36.916263509565 39.46908
    vertex -49.3056793905021 37.2832806094979 39.46908
  endloop
endfacet
facet normal -.471396736826075 -.881921264348314 0
  outer loop
    vertex -48.8584677602828 36.916263509565 39.36908
    vertex -48.3482476919272 36.6435452012433 39.46908
    vertex -48.8584677602828 36.916263509565 39.46908
  endloop
endfacet
facet normal -.290284677254415 -.956940335732223 0
  outer loop
    vertex -48.3482476919272 36.6435452012433 39.36908
    vertex -47.7946266565276 36.4756060961796 39.46908
    vertex -48.3482476919272 36.6435452012433 39.46908
  endloop
endfacet
facet normal -9.80171403295563E-02 -.995184726672197 0
  outer loop
    vertex -47.7946266565276 36.4756060961796 39.36908
    vertex -47.21888 36.4189 39.46908
    vertex -47.7946266565276 36.4756060961796 39.46908
  endloop
endfacet
facet normal 9.80171403295563E-02 -.995184726672197 0
  outer loop
    vertex -47.21888 36.4189 39.36908
    vertex -46.6431333434724 36.4756060961796 39.46908
    vertex -47.21888 36.4189 39.46908
  endloop
endfacet
facet normal .290284677254415 -.956940335732223 0
  outer loop
    vertex -46.6431333434724 36.4756060961796 39.36908
    vertex -46.0895123080728 36.6435452012433 39.46908
    vertex -46.6431333434724 36.4756060961796 39.46908
  endloop
endfacet
facet normal .471396736826075 -.881921264348314 0
  outer loop
    vertex -46.0895123080728 36.6435452012433 39.36908
    vertex -45.5792922397172 36.916263509565 39.46908
    vertex -46.0895123080728 36.6435452012433 39.46908
  endloop
endfacet
facet normal .634393284163658 -.773010453362726 0
  outer loop
    vertex -45.5792922397172 36.916263509565 39.36908
    vertex -45.1320806094979 37.2832806094979 39.46908
    vertex -45.5792922397172 36.916263509565 39.46908
  endloop
endfacet
facet normal .773010453362732 -.634393284163651 0
  outer loop
    vertex -45.1320806094979 37.2832806094979 39.36908
    vertex -44.765063509565 37.7304922397172 39.46908
    vertex -45.1320806094979 37.2832806094979 39.46908
  endloop
endfacet
facet normal .881921264348314 -.471396736826075 0
  outer loop
    vertex -44.765063509565 37.7304922397172 39.36908
    vertex -44.4923452012433 38.2407123080728 39.46908
    vertex -44.765063509565 37.7304922397172 39.46908
  endloop
endfacet
facet normal .956940335732223 -.290284677254415 0
  outer loop
    vertex -44.4923452012433 38.2407123080728 39.36908
    vertex -44.3244060961796 38.7943333434724 39.46908
    vertex -44.4923452012433 38.2407123080728 39.46908
  endloop
endfacet
facet normal .995184726672196 -9.80171403295685E-02 0
  outer loop
    vertex -44.3244060961796 38.7943333434724 39.36908
    vertex -44.2677 39.37008 39.46908
    vertex -44.3244060961796 38.7943333434724 39.46908
  endloop
endfacet
facet normal .995184726672196 9.80171403295685E-02 0
  outer loop
    vertex -44.3244060961796 39.9458266565276 39.36908
    vertex -44.3244060961796 39.9458266565276 39.46908
    vertex -44.2677 39.37008 39.36908
  endloop
endfacet
facet normal .956940335732223 .290284677254415 0
  outer loop
    vertex -44.4923452012433 40.4994476919272 39.36908
    vertex -44.4923452012433 40.4994476919272 39.46908
    vertex -44.3244060961796 39.9458266565276 39.36908
  endloop
endfacet
facet normal .881921264348314 .471396736826075 0
  outer loop
    vertex -44.765063509565 41.0096677602828 39.36908
    vertex -44.765063509565 41.0096677602828 39.46908
    vertex -44.4923452012433 40.4994476919272 39.36908
  endloop
endfacet
facet normal .773010453362732 .634393284163651 0
  outer loop
    vertex -45.1320806094979 41.4568793905021 39.36908
    vertex -45.1320806094979 41.4568793905021 39.46908
    vertex -44.765063509565 41.0096677602828 39.36908
  endloop
endfacet
facet normal .634393284163651 .773010453362732 0
  outer loop
    vertex -45.5792922397172 41.823896490435 39.36908
    vertex -45.5792922397172 41.823896490435 39.46908
    vertex -45.1320806094979 41.4568793905021 39.36908
  endloop
endfacet
facet normal .471396736826075 .881921264348314 0
  outer loop
    vertex -46.0895123080728 42.0966147987567 39.36908
    vertex -46.0895123080728 42.0966147987567 39.46908
    vertex -45.5792922397172 41.823896490435 39.36908
  endloop
endfacet
facet normal .290284677254415 .956940335732223 0
  outer loop
    vertex -46.6431333434724 42.2645539038204 39.36908
    vertex -46.6431333434724 42.2645539038204 39.46908
    vertex -46.0895123080728 42.0966147987567 39.36908
  endloop
endfacet
facet normal 9.80171403295685E-02 .995184726672196 0
  outer loop
    vertex -47.21888 42.32126 39.36908
    vertex -47.21888 42.32126 39.46908
    vertex -46.6431333434724 42.2645539038204 39.36908
  endloop
endfacet
facet normal -9.80171403295685E-02 .995184726672196 0
  outer loop
    vertex -47.7946266565276 42.2645539038204 39.36908
    vertex -47.7946266565276 42.2645539038204 39.46908
    vertex -47.21888 42.32126 39.36908
  endloop
endfacet
facet normal -.290284677254415 .956940335732223 0
  outer loop
    vertex -48.3482476919272 42.0966147987567 39.36908
    vertex -48.3482476919272 42.0966147987567 39.46908
    vertex -47.7946266565276 42.2645539038204 39.36908
  endloop
endfacet
facet normal -.471396736826075 .881921264348314 0
  outer loop
    vertex -48.8584677602828 41.823896490435 39.36908
    vertex -48.8584677602828 41.823896490435 39.46908
    vertex -48.3482476919272 42.0966147987567 39.36908
  endloop
endfacet
facet normal -.634393284163651 .773010453362732 0
  outer loop
    vertex -49.3056793905021 41.4568793905021 39.36908
    vertex -49.3056793905021 41.4568793905021 39.46908
    vertex -48.8584677602828 41.823896490435 39.36908
  endloop
endfacet
facet normal -.773010453362726 .634393284163658 0
  outer loop
    vertex -49.672696490435 41.0096677602828 39.36908
    vertex -49.672696490435 41.0096677602828 39.46908
    vertex -49.3056793905021 41.4568793905021 39.36908
  endloop
endfacet
facet normal -.881921264348314 .471396736826075 0
  outer loop
    vertex -49.9454147987567 40.4994476919272 39.36908
    vertex -49.9454147987567 40.4994476919272 39.46908
    vertex -49.672696490435 41.0096677602828 39.36908
  endloop
endfacet
facet normal -.956940335732223 .290284677254415 0
  outer loop
    vertex -50.1133539038204 39.9458266565276 39.36908
    vertex -50.1133539038204 39.9458266565276 39.46908
    vertex -49.9454147987567 40.4994476919272 39.36908
  endloop
endfacet
facet normal -.995184726672197 9.80171403295563E-02 0
  outer loop
    vertex -50.17006 39.37008 39.36908
    vertex -50.17006 39.37008 39.46908
    vertex -50.1133539038204 39.9458266565276 39.36908
  endloop
endfacet
facet normal -.995184726672197 -9.80171403295563E-02 0
  outer loop
    vertex -50.1133539038204 38.7943333434724 39.36908
    vertex -50.1133539038204 38.7943333434724 39.46908
    vertex -50.17006 39.37008 39.36908
  endloop
endfacet
facet normal -.956940335732223 -.290284677254415 0
  outer loop
    vertex -49.9454147987567 38.2407123080728 39.36908
    vertex -49.9454147987567 38.2407123080728 39.46908
    vertex -50.1133539038204 38.7943333434724 39.36908
  endloop
endfacet
facet normal -.881921264348314 -.471396736826075 0
  outer loop
    vertex -49.672696490435 37.7304922397172 39.36908
    vertex -49.672696490435 37.7304922397172 39.46908
    vertex -49.9454147987567 38.2407123080728 39.36908
  endloop
endfacet
facet normal -.773010453362726 -.634393284163658 0
  outer loop
    vertex -49.3056793905021 37.2832806094979 39.36908
    vertex -49.3056793905021 37.2832806094979 39.46908
    vertex -49.672696490435 37.7304922397172 39.36908
  endloop
endfacet
facet normal -.634393284163658 -.773010453362726 0
  outer loop
    vertex -48.8584677602828 36.916263509565 39.36908
    vertex -48.8584677602828 36.916263509565 39.46908
    vertex -49.3056793905021 37.2832806094979 39.36908
  endloop
endfacet
facet normal -.471396736826075 -.881921264348314 0
  outer loop
    vertex -48.3482476919272 36.6435452012433 39.36908
    vertex -48.3482476919272 36.6435452012433 39.46908
    vertex -48.8584677602828 36.916263509565 39.36908
  endloop
endfacet
facet normal -.290284677254415 -.956940335732223 0
  outer loop
    vertex -47.7946266565276 36.4756060961796 39.36908
    vertex -47.7946266565276 36.4756060961796 39.46908
    vertex -48.3482476919272 36.6435452012433 39.36908
  endloop
endfacet
facet normal -9.80171403295563E-02 -.995184726672197 0
  outer loop
    vertex -47.21888 36.4189 39.36908
    vertex -47.21888 36.4189 39.46908
    vertex -47.7946266565276 36.4756060961796 39.36908
  endloop
endfacet
facet normal 9.80171403295563E-02 -.995184726672197 0
  outer loop
    vertex -46.6431333434724 36.4756060961796 39.36908
    vertex -46.6431333434724 36.4756060961796 39.46908
    vertex -47.21888 36.4189 39.36908
  endloop
endfacet
facet normal .290284677254415 -.956940335732223 0
  outer loop
    vertex -46.0895123080728 36.6435452012433 39.36908
    vertex -46.0895123080728 36.6435452012433 39.46908
    vertex -46.6431333434724 36.4756060961796 39.36908
  endloop
endfacet
facet normal .471396736826075 -.881921264348314 0
  outer loop
    vertex -45.5792922397172 36.916263509565 39.36908
    vertex -45.5792922397172 36.916263509565 39.46908
    vertex -46.0895123080728 36.6435452012433 39.36908
  endloop
endfacet
facet normal .634393284163658 -.773010453362726 0
  outer loop
    vertex -45.1320806094979 37.2832806094979 39.36908
    vertex -45.1320806094979 37.2832806094979 39.46908
    vertex -45.5792922397172 36.916263509565 39.36908
  endloop
endfacet
facet normal .773010453362732 -.634393284163651 0
  outer loop
    vertex -44.765063509565 37.7304922397172 39.36908
    vertex -44.765063509565 37.7304922397172 39.46908
    vertex -45.1320806094979 37.2832806094979 39.36908
  endloop
endfacet
facet normal .881921264348314 -.471396736826075 0
  outer loop
    vertex -44.4923452012433 38.2407123080728 39.36908
    vertex -44.4923452012433 38.2407123080728 39.46908
    vertex -44.765063509565 37.7304922397172 39.36908
  endloop
endfacet
facet normal .956940335732223 -.290284677254415 0
  outer loop
    vertex -44.3244060961796 38.7943333434724 39.36908
    vertex -44.3244060961796 38.7943333434724 39.46908
    vertex -44.4923452012433 38.2407123080728 39.36908
  endloop
endfacet
facet normal .995184726672196 -9.80171403295685E-02 0
  outer loop
    vertex -44.2677 39.37008 39.36908
    vertex -44.2677 39.37008 39.46908
    vertex -44.3244060961796 38.7943333434724 39.36908
  endloop
endfacet
facet normal 1 0 0
  outer loop
    vertex 59.0236 -61.0236 2
    vertex 59.0236 61.0236 39.36908
    vertex 59.0236 -61.0236 39.36908
  endloop
endfacet
facet normal 1 0 0
  outer loop
    vertex 59.0236 -61.0236 2
    vertex 59.0236 61.0236 2
    vertex 59.0236 61.0236 39.36908
  endloop
endfacet
facet normal -1 0 0
  outer loop
    vertex -59.0236 61.0236 2
    vertex -59.0236 -61.0236 39.36908
    vertex -59.0236 61.0236 39.36908
  endloop
endfacet
facet normal -1 0 0
  outer loop
    vertex -59.0236 61.0236 2
    vertex -59.0236 -61.0236 2
    vertex -59.0236 -61.0236 39.36908
  endloop
endfacet
facet normal 0 -1 0
  outer loop
    vertex -59.0236 -61.0236 2
    vertex 59.0236 -61.0236 39.36908
    vertex -59.0236 -61.0236 39.36908
  endloop
endfacet
facet normal 0 -1 0
  outer loop
    vertex -59.0236 -61.0236 2
    vertex 59.0236 -61.0236 2
    vertex 59.0236 -61.0236 39.36908
  endloop
endfacet
facet normal 0 1 0
  outer loop
    vertex 59.0236 61.0236 2
    vertex -59.0236 61.0236 39.36908
    vertex 59.0236 61.0236 39.36908
  endloop
endfacet
facet normal 0 1 0
  outer loop
    vertex 59.0236 61.0236 2
    vertex -59.0236 61.0236 2
    vertex -59.0236 61.0236 39.36908
  endloop
endfacet
facet normal 0 0 -1
  outer loop
    vertex 59.0236 -61.0236 2
    vertex -59.0236 61.0236 2
    vertex 59.0236 61.0236 2
  endloop
endfacet
facet normal 0 0 -1
  outer loop
    vertex 59.0236 -61.0236 2
    vertex -59.0236 -61.0236 2
    vertex -59.0236 61.0236 2
  endloop
endfacet
facet normal 0 0 1
  outer loop
    vertex 59.0236 -61.0236 39.36908
    vertex 59.0236 61.0236 39.36908
    vertex -59.0236 61.0236 39.36908
  endloop
endfacet
facet normal 0 0 1
  outer loop
    vertex 59.0236 -61.0236 39.36908
    vertex -59.0236 61.0236 39.36908
    vertex -59.0236 -61.0236 39.36908
  endloop
endfacet
facet normal 1 0 0
  outer loop
    vertex 61.0236 -44.88189 0
    vertex 61.0236 -33.85827 15
    vertex 61.0236 -44.88189 15
  endloop
endfacet
facet normal 1 0 0
  outer loop
    vertex 61.0236 -44.88189 0
    vertex 61.0236 -33.85827 0
    vertex 61.0236 -33.85827 15
  endloop
endfacet
facet normal 0 1 0
  outer loop
    vertex 61.0236 -33.85827 15
    vertex 61.0236 -33.85827 0
    vertex 59.0236 -33.85827 15
  endloop
endfacet
facet normal 0 1 0
  outer loop
    vertex 59.0236 -33.85827 15
    vertex 61.0236 -33.85827 0
    vertex 59.0236 -33.85827 2
  endloop
endfacet
facet normal 0 1 0
  outer loop
    vertex 59.0236 -33.85827 2
    vertex 61.0236 -33.85827 0
    vertex 41.338565 -33.85827 2
  endloop
endfacet
facet normal 0 1 0
  outer loop
    vertex 41.338565 -33.85827 0
    vertex 41.338565 -33.85827 2
    vertex 61.0236 -33.85827 0
  endloop
endfacet
facet normal -1 0 0
  outer loop
    vertex 41.338565 -33.85827 0
    vertex 41.338565 -44.88189 2
    vertex 41.338565 -33.85827 2
  endloop
endfacet
facet normal -1 0 0
  outer loop
    vertex 41.338565 -33.85827 0
    vertex 41.338565 -44.88189 0
    vertex 41.338565 -44.88189 2
  endloop
endfacet
facet normal 0 -1 0
  outer loop
    vertex 59.0236 -44.88189 2
    vertex 41.338565 -44.88189 2
    vertex 41.338565 -44.88189 0
  endloop
endfacet
facet normal 0 -1 0
  outer loop
    vertex 59.0236 -44.88189 2
    vertex 41.338565 -44.88189 0
    vertex 61.0236 -44.88189 0
  endloop
endfacet
facet normal 0 -1 0
  outer loop
    vertex 59.0236 -44.88189 2
    vertex 61.0236 -44.88189 15
    vertex 59.0236 -44.88189 15
  endloop
endfacet
facet normal 0 -1 0
  outer loop
    vertex 59.0236 -44.88189 2
    vertex 61.0236 -44.88189 0
    vertex 61.0236 -44.88189 15
  endloop
endfacet
facet normal -1 0 0
  outer loop
    vertex 59.0236 -33.85827 15
    vertex 59.0236 -44.88189 2
    vertex 59.0236 -44.88189 15
  endloop
endfacet
facet normal -1 0 0
  outer loop
    vertex 59.0236 -33.85827 15
    vertex 59.0236 -33.85827 2
    vertex 59.0236 -44.88189 2
  endloop
endfacet
facet normal 0 0 1
  outer loop
    vertex 61.0236 -44.88189 15
    vertex 61.0236 -33.85827 15
    vertex 59.0236 -44.88189 15
  endloop
endfacet
facet normal 0 0 1
  outer loop
    vertex 59.0236 -44.88189 15
    vertex 61.0236 -33.85827 15
    vertex 59.0236 -33.85827 15
  endloop
endfacet
facet normal 0 0 1
  outer loop
    vertex 59.0236 -44.88189 2
    vertex 59.0236 -33.85827 2
    vertex 41.338565 -44.88189 2
  endloop
endfacet
facet normal 0 0 1
  outer loop
    vertex 59.0236 -33.85827 2
    vertex 41.338565 -33.85827 2
    vertex 41.338565 -44.88189 2
  endloop
endfacet
facet normal 0 0 -1
  outer loop
    vertex 61.0236 -44.88189 0
    vertex 41.338565 -44.88189 0
    vertex 61.0236 -33.85827 0
  endloop
endfacet
facet normal 0 0 -1
  outer loop
    vertex 61.0236 -33.85827 0
    vertex 41.338565 -44.88189 0
    vertex 41.338565 -33.85827 0
  endloop
endfacet
facet normal 1 0 0
  outer loop
    vertex 61.0236 -25.19685 0
    vertex 61.0236 -14.17323 15
    vertex 61.0236 -25.19685 15
  endloop
endfacet
facet normal 1 0 0
  outer loop
    vertex 61.0236 -25.19685 0
    vertex 61.0236 -14.17323 0
    vertex 61.0236 -14.17323 15
  endloop
endfacet
facet normal 0 1 0
  outer loop
    vertex 61.0236 -14.17323 15
    vertex 61.0236 -14.17323 0
    vertex 59.0236 -14.17323 15
  endloop
endfacet
facet normal 0 1 0
  outer loop
    vertex 59.0236 -14.17323 15
    vertex 61.0236 -14.17323 0
    vertex 59.0236 -14.17323 2
  endloop
endfacet
facet normal 0 1 0
  outer loop
    vertex 59.0236 -14.17323 2
    vertex 61.0236 -14.17323 0
    vertex 41.338565 -14.17323 2
  endloop
endfacet
facet normal 0 1 0
  outer loop
    vertex 41.338565 -14.17323 0
    vertex 41.338565 -14.17323 2
    vertex 61.0236 -14.17323 0
  endloop
endfacet
facet normal -1 0 0
  outer loop
    vertex 41.338565 -14.17323 0
    vertex 41.338565 -25.19685 2
    vertex 41.338565 -14.17323 2
  endloop
endfacet
facet normal -1 0 0
  outer loop
    vertex 41.338565 -14.17323 0
    vertex 41.338565 -25.19685 0
    vertex 41.338565 -25.19685 2
  endloop
endfacet
facet normal 0 -1 0
  outer loop
    vertex 59.0236 -25.19685 2
    vertex 41.338565 -25.19685 2
    vertex 41.338565 -25.19685 0
  endloop
endfacet
facet normal 0 -1 0
  outer loop
    vertex 59.0236 -25.19685 2
    vertex 41.338565 -25.19685 0
    vertex 61.0236 -25.19685 0
  endloop
endfacet
facet normal 0 -1 0
  outer loop
    vertex 59.0236 -25.19685 2
    vertex 61.0236 -25.19685 15
    vertex 59.0236 -25.19685 15
  endloop
endfacet
facet normal 0 -1 0
  outer loop
    vertex 59.0236 -25.19685 2
    vertex 61.0236 -25.19685 0
    vertex 61.0236 -25.19685 15
  endloop
endfacet
facet normal -1 0 0
  outer loop
    vertex 59.0236 -14.17323 15
    vertex 59.0236 -25.19685 2
    vertex 59.0236 -25.19685 15
  endloop
endfacet
facet normal -1 0 0
  outer loop
    vertex 59.0236 -14.17323 15
    vertex 59.0236 -14.17323 2
    vertex 59.0236 -25.19685 2
  endloop
endfacet
facet normal 0 0 1
  outer loop
    vertex 61.0236 -25.19685 15
    vertex 61.0236 -14.17323 15
    vertex 59.0236 -25.19685 15
  endloop
endfacet
facet normal 0 0 1
  outer loop
    vertex 59.0236 -25.19685 15
    vertex 61.0236 -14.17323 15
    vertex 59.0236 -14.17323 15
  endloop
endfacet
facet normal 0 0 1
  outer loop
    vertex 59.0236 -25.19685 2
    vertex 59.0236 -14.17323 2
    vertex 41.338565 -25.19685 2
  endloop
endfacet
facet normal 0 0 1
  outer loop
    vertex 59.0236 -14.17323 2
    vertex 41.338565 -14.17323 2
    vertex 41.338565 -25.19685 2
  endloop
endfacet
facet normal 0 0 -1
  outer loop
    vertex 61.0236 -25.19685 0
    vertex 41.338565 -25.19685 0
    vertex 61.0236 -14.17323 0
  endloop
endfacet
facet normal 0 0 -1
  outer loop
    vertex 61.0236 -14.17323 0
    vertex 41.338565 -25.19685 0
    vertex 41.338565 -14.17323 0
  endloop
endfacet
facet normal 1 0 0
  outer loop
    vertex 61.0236 -5.51181 0
    vertex 61.0236 5.51181 15
    vertex 61.0236 -5.51181 15
  endloop
endfacet
facet normal 1 0 0
  outer loop
    vertex 61.0236 -5.51181 0
    vertex 61.0236 5.51181 0
    vertex 61.0236 5.51181 15
  endloop
endfacet
facet normal 0 1 0
  outer loop
    vertex 61.0236 5.51181 15
    vertex 61.0236 5.51181 0
    vertex 59.0236 5.51181 15
  endloop
endfacet
facet normal 0 1 0
  outer loop
    vertex 59.0236 5.51181 15
    vertex 61.0236 5.51181 0
    vertex 59.0236 5.51181 2
  endloop
endfacet
facet normal 0 1 0
  outer loop
    vertex 59.0236 5.51181 2
    vertex 61.0236 5.51181 0
    vertex 41.338565 5.51181 2
  endloop
endfacet
facet normal 0 1 0
  outer loop
    vertex 41.338565 5.51181 0
    vertex 41.338565 5.51181 2
    vertex 61.0236 5.51181 0
  endloop
endfacet
facet normal -1 0 0
  outer loop
    vertex 41.338565 5.51181 0
    vertex 41.338565 -5.51181 2
    vertex 41.338565 5.51181 2
  endloop
endfacet
facet normal -1 0 0
  outer loop
    vertex 41.338565 5.51181 0
    vertex 41.338565 -5.51181 0
    vertex 41.338565 -5.51181 2
  endloop
endfacet
facet normal 0 -1 0
  outer loop
    vertex 59.0236 -5.51181 2
    vertex 41.338565 -5.51181 2
    vertex 41.338565 -5.51181 0
  endloop
endfacet
facet normal 0 -1 0
  outer loop
    vertex 59.0236 -5.51181 2
    vertex 41.338565 -5.51181 0
    vertex 61.0236 -5.51181 0
  endloop
endfacet
facet normal 0 -1 0
  outer loop
    vertex 59.0236 -5.51181 2
    vertex 61.0236 -5.51181 15
    vertex 59.0236 -5.51181 15
  endloop
endfacet
facet normal 0 -1 0
  outer loop
    vertex 59.0236 -5.51181 2
    vertex 61.0236 -5.51181 0
    vertex 61.0236 -5.51181 15
  endloop
endfacet
facet normal -1 0 0
  outer loop
    vertex 59.0236 5.51181 15
    vertex 59.0236 -5.51181 2
    vertex 59.0236 -5.51181 15
  endloop
endfacet
facet normal -1 0 0
  outer loop
    vertex 59.0236 5.51181 15
    vertex 59.0236 5.51181 2
    vertex 59.0236 -5.51181 2
  endloop
endfacet
facet normal 0 0 1
  outer loop
    vertex 61.0236 -5.51181 15
    vertex 61.0236 5.51181 15
    vertex 59.0236 -5.51181 15
  endloop
endfacet
facet normal 0 0 1
  outer loop
    vertex 59.0236 -5.51181 15
    vertex 61.0236 5.51181 15
    vertex 59.0236 5.51181 15
  endloop
endfacet
facet normal 0 0 1
  outer loop
    vertex 59.0236 -5.51181 2
    vertex 59.0236 5.51181 2
    vertex 41.338565 -5.51181 2
  endloop
endfacet
facet normal 0 0 1
  outer loop
    vertex 59.0236 5.51181 2
    vertex 41.338565 5.51181 2
    vertex 41.338565 -5.51181 2
  endloop
endfacet
facet normal 0 0 -1
  outer loop
    vertex 61.0236 -5.51181 0
    vertex 41.338565 -5.51181 0
    vertex 61.0236 5.51181 0
  endloop
endfacet
facet normal 0 0 -1
  outer loop
    vertex 61.0236 5.51181 0
    vertex 41.338565 -5.51181 0
    vertex 41.338565 5.51181 0
  endloop
endfacet
facet normal 1 0 0
  outer loop
    vertex 61.0236 14.17323 0
    vertex 61.0236 25.19685 15
    vertex 61.0236 14.17323 15
  endloop
endfacet
facet normal 1 0 0
  outer loop
    vertex 61.0236 14.17323 0
    vertex 61.0236 25.19685 0
    vertex 61.0236 25.19685 15
  endloop
endfacet
facet normal 0 1 0
  outer loop
    vertex 61.0236 25.19685 15
    vertex 61.0236 25.19685 0
    vertex 59.0236 25.19685 15
  endloop
endfacet
facet normal 0 1 0
  outer loop
    vertex 59.0236 25.19685 15
    vertex 61.0236 25.19685 0
    vertex 59.0236 25.19685 2
  endloop
endfacet
facet normal 0 1 0
  outer loop
    vertex 59.0236 25.19685 2
    vertex 61.0236 25.19685 0
    vertex 41.338565 25.19685 2
  endloop
endfacet
facet normal 0 1 0
  outer loop
    vertex 41.338565 25.19685 0
    vertex 41.338565 25.19685 2
    vertex 61.0236 25.19685 0
  endloop
endfacet
facet normal -1 0 0
  outer loop
    vertex 41.338565 25.19685 0
    vertex 41.338565 14.17323 2
    vertex 41.338565 25.19685 2
  endloop
endfacet
facet normal -1 0 0
  outer loop
    vertex 41.338565 25.19685 0
    vertex 41.338565 14.17323 0
    vertex 41.338565 14.17323 2
  endloop
endfacet
facet normal 0 -1 0
  outer loop
    vertex 59.0236 14.17323 2
    vertex 41.338565 14.17323 2
    vertex 41.338565 14.17323 0
  endloop
endfacet
facet normal 0 -1 0
  outer loop
    vertex 59.0236 14.17323 2
    vertex 41.338565 14.17323 0
    vertex 61.0236 14.17323 0
  endloop
endfacet
facet normal 0 -1 0
  outer loop
    vertex 59.0236 14.17323 2
    vertex 61.0236 14.17323 15
    vertex 59.0236 14.17323 15
  endloop
endfacet
facet normal 0 -1 0
  outer loop
    vertex 59.0236 14.17323 2
    vertex 61.0236 14.17323 0
    vertex 61.0236 14.17323 15
  endloop
endfacet
facet normal -1 0 0
  outer loop
    vertex 59.0236 25.19685 15
    vertex 59.0236 14.17323 2
    vertex 59.0236 14.17323 15
  endloop
endfacet
facet normal -1 0 0
  outer loop
    vertex 59.0236 25.19685 15
    vertex 59.0236 25.19685 2
    vertex 59.0236 14.17323 2
  endloop
endfacet
facet normal 0 0 1
  outer loop
    vertex 61.0236 14.17323 15
    vertex 61.0236 25.19685 15
    vertex 59.0236 14.17323 15
  endloop
endfacet
facet normal 0 0 1
  outer loop
    vertex 59.0236 14.17323 15
    vertex 61.0236 25.19685 15
    vertex 59.0236 25.19685 15
  endloop
endfacet
facet normal 0 0 1
  outer loop
    vertex 59.0236 14.17323 2
    vertex 59.0236 25.19685 2
    vertex 41.338565 14.17323 2
  endloop
endfacet
facet normal 0 0 1
  outer loop
    vertex 59.0236 25.19685 2
    vertex 41.338565 25.19685 2
    vertex 41.338565 14.17323 2
  endloop
endfacet
facet normal 0 0 -1
  outer loop
    vertex 61.0236 14.17323 0
    vertex 41.338565 14.17323 0
    vertex 61.0236 25.19685 0
  endloop
endfacet
facet normal 0 0 -1
  outer loop
    vertex 61.0236 25.19685 0
    vertex 41.338565 14.17323 0
    vertex 41.338565 25.19685 0
  endloop
endfacet
facet normal 1 0 0
  outer loop
    vertex 61.0236 33.85827 0
    vertex 61.0236 44.88189 15
    vertex 61.0236 33.85827 15
  endloop
endfacet
facet normal 1 0 0
  outer loop
    vertex 61.0236 33.85827 0
    vertex 61.0236 44.88189 0
    vertex 61.0236 44.88189 15
  endloop
endfacet
facet normal 0 1 0
  outer loop
    vertex 61.0236 44.88189 15
    vertex 61.0236 44.88189 0
    vertex 59.0236 44.88189 15
  endloop
endfacet
facet normal 0 1 0
  outer loop
    vertex 59.0236 44.88189 15
    vertex 61.0236 44.88189 0
    vertex 59.0236 44.88189 2
  endloop
endfacet
facet normal 0 1 0
  outer loop
    vertex 59.0236 44.88189 2
    vertex 61.0236 44.88189 0
    vertex 41.338565 44.88189 2
  endloop
endfacet
facet normal 0 1 0
  outer loop
    vertex 41.338565 44.88189 0
    vertex 41.338565 44.88189 2
    vertex 61.0236 44.88189 0
  endloop
endfacet
facet normal -1 0 0
  outer loop
    vertex 41.338565 44.88189 0
    vertex 41.338565 33.85827 2
    vertex 41.338565 44.88189 2
  endloop
endfacet
facet normal -1 0 0
  outer loop
    vertex 41.338565 44.88189 0
    vertex 41.338565 33.85827 0
    vertex 41.338565 33.85827 2
  endloop
endfacet
facet normal 0 -1 0
  outer loop
    vertex 59.0236 33.85827 2
    vertex 41.338565 33.85827 2
    vertex 41.338565 33.85827 0
  endloop
endfacet
facet normal 0 -1 0
  outer loop
    vertex 59.0236 33.85827 2
    vertex 41.338565 33.85827 0
    vertex 61.0236 33.85827 0
  endloop
endfacet
facet normal 0 -1 0
  outer loop
    vertex 59.0236 33.85827 2
    vertex 61.0236 33.85827 15
    vertex 59.0236 33.85827 15
  endloop
endfacet
facet normal 0 -1 0
  outer loop
    vertex 59.0236 33.85827 2
    vertex 61.0236 33.85827 0
    vertex 61.0236 33.85827 15
  endloop
endfacet
facet normal -1 0 0
  outer loop
    vertex 59.0236 44.88189 15
    vertex 59.0236 33.85827 2
    vertex 59.0236 33.85827 15
  endloop
endfacet
facet normal -1 0 0
  outer loop
    vertex 59.0236 44.88189 15
    vertex 59.0236 44.88189 2
    vertex 59.0236 33.85827 2
  endloop
endfacet
facet normal 0 0 1
  outer loop
    vertex 61.0236 33.85827 15
    vertex 61.0236 44.88189 15
    vertex 59.0236 33.85827 15
  endloop
endfacet
facet normal 0 0 1
  outer loop
    vertex 59.0236 33.85827 15
    vertex 61.0236 44.88189 15
    vertex 59.0236 44.88189 15
  endloop
endfacet
facet normal 0 0 1
  outer loop
    vertex 59.0236 33.85827 2
    vertex 59.0236 44.88189 2
    vertex 41.338565 33.85827 2
  endloop
endfacet
facet normal 0 0 1
  outer loop
    vertex 59.0236 44.88189 2
    vertex 41.338565 44.88189 2
    vertex 41.338565 33.85827 2
  endloop
endfacet
facet normal 0 0 -1
  outer loop
    vertex 61.0236 33.85827 0
    vertex 41.338565 33.85827 0
    vertex 61.0236 44.88189 0
  endloop
endfacet
facet normal 0 0 -1
  outer loop
    vertex 61.0236 44.88189 0
    vertex 41.338565 33.85827 0
    vertex 41.338565 44.88189 0
  endloop
endfacet
facet normal -1 0 0
  outer loop
    vertex -61.0236 44.88189 0
    vertex -61.0236 33.85827 15
    vertex -61.0236 44.88189 15
  endloop
endfacet
facet normal -1 0 0
  outer loop
    vertex -61.0236 44.88189 0
    vertex -61.0236 33.85827 0
    vertex -61.0236 33.85827 15
  endloop
endfacet
facet normal 0 -1 0
  outer loop
    vertex -61.0236 33.85827 15
    vertex -61.0236 33.85827 0
    vertex -59.0236 33.85827 15
  endloop
endfacet
facet normal 0 -1 0
  outer loop
    vertex -59.0236 33.85827 15
    vertex -61.0236 33.85827 0
    vertex -59.0236 33.85827 2
  endloop
endfacet
facet normal 0 -1 0
  outer loop
    vertex -59.0236 33.85827 2
    vertex -61.0236 33.85827 0
    vertex -41.338565 33.85827 2
  endloop
endfacet
facet normal 0 -1 0
  outer loop
    vertex -41.338565 33.85827 0
    vertex -41.338565 33.85827 2
    vertex -61.0236 33.85827 0
  endloop
endfacet
facet normal 1 0 0
  outer loop
    vertex -41.338565 33.85827 0
    vertex -41.338565 44.88189 2
    vertex -41.338565 33.85827 2
  endloop
endfacet
facet normal 1 0 0
  outer loop
    vertex -41.338565 33.85827 0
    vertex -41.338565 44.88189 0
    vertex -41.338565 44.88189 2
  endloop
endfacet
facet normal 0 1 0
  outer loop
    vertex -59.0236 44.88189 2
    vertex -41.338565 44.88189 2
    vertex -41.338565 44.88189 0
  endloop
endfacet
facet normal 0 1 0
  outer loop
    vertex -59.0236 44.88189 2
    vertex -41.338565 44.88189 0
    vertex -61.0236 44.88189 0
  endloop
endfacet
facet normal 0 1 0
  outer loop
    vertex -59.0236 44.88189 2
    vertex -61.0236 44.88189 15
    vertex -59.0236 44.88189 15
  endloop
endfacet
facet normal 0 1 0
  outer loop
    vertex -59.0236 44.88189 2
    vertex -61.0236 44.88189 0
    vertex -61.0236 44.88189 15
  endloop
endfacet
facet normal 1 0 0
  outer loop
    vertex -59.0236 33.85827 15
    vertex -59.0236 44.88189 2
    vertex -59.0236 44.88189 15
  endloop
endfacet
facet normal 1 0 0
  outer loop
    vertex -59.0236 33.85827 15
    vertex -59.0236 33.85827 2
    vertex -59.0236 44.88189 2
  endloop
endfacet
facet normal 0 0 1
  outer loop
    vertex -61.0236 44.88189 15
    vertex -61.0236 33.85827 15
    vertex -59.0236 44.88189 15
  endloop
endfacet
facet normal 0 0 1
  outer loop
    vertex -59.0236 44.88189 15
    vertex -61.0236 33.85827 15
    vertex -59.0236 33.85827 15
  endloop
endfacet
facet normal 0 0 1
  outer loop
    vertex -59.0236 44.88189 2
    vertex -59.0236 33.85827 2
    vertex -41.338565 44.88189 2
  endloop
endfacet
facet normal 0 0 1
  outer loop
    vertex -59.0236 33.85827 2
    vertex -41.338565 33.85827 2
    vertex -41.338565 44.88189 2
  endloop
endfacet
facet normal 0 0 -1
  outer loop
    vertex -61.0236 44.88189 0
    vertex -41.338565 44.88189 0
    vertex -61.0236 33.85827 0
  endloop
endfacet
facet normal 0 0 -1
  outer loop
    vertex -61.0236 33.85827 0
    vertex -41.338565 44.88189 0
    vertex -41.338565 33.85827 0
  endloop
endfacet
facet normal -1 0 0
  outer loop
    vertex -61.0236 25.19685 0
    vertex -61.0236 14.17323 15
    vertex -61.0236 25.19685 15
  endloop
endfacet
facet normal -1 0 0
  outer loop
    vertex -61.0236 25.19685 0
    vertex -61.0236 14.17323 0
    vertex -61.0236 14.17323 15
  endloop
endfacet
facet normal 0 -1 0
  outer loop
    vertex -61.0236 14.17323 15
    vertex -61.0236 14.17323 0
    vertex -59.0236 14.17323 15
  endloop
endfacet
facet normal 0 -1 0
  outer loop
    vertex -59.0236 14.17323 15
    vertex -61.0236 14.17323 0
    vertex -59.0236 14.17323 2
  endloop
endfacet
facet normal 0 -1 0
  outer loop
    vertex -59.0236 14.17323 2
    vertex -61.0236 14.17323 0
    vertex -41.338565 14.17323 2
  endloop
endfacet
facet normal 0 -1 0
  outer loop
    vertex -41.338565 14.17323 0
    vertex -41.338565 14.17323 2
    vertex -61.0236 14.17323 0
  endloop
endfacet
facet normal 1 0 0
  outer loop
    vertex -41.338565 14.17323 0
    vertex -41.338565 25.19685 2
    vertex -41.338565 14.17323 2
  endloop
endfacet
facet normal 1 0 0
  outer loop
    vertex -41.338565 14.17323 0
    vertex -41.338565 25.19685 0
    vertex -41.338565 25.19685 2
  endloop
endfacet
facet normal 0 1 0
  outer loop
    vertex -59.0236 25.19685 2
    vertex -41.338565 25.19685 2
    vertex -41.338565 25.19685 0
  endloop
endfacet
facet normal 0 1 0
  outer loop
    vertex -59.0236 25.19685 2
    vertex -41.338565 25.19685 0
    vertex -61.0236 25.19685 0
  endloop
endfacet
facet normal 0 1 0
  outer loop
    vertex -59.0236 25.19685 2
    vertex -61.0236 25.19685 15
    vertex -59.0236 25.19685 15
  endloop
endfacet
facet normal 0 1 0
  outer loop
    vertex -59.0236 25.19685 2
    vertex -61.0236 25.19685 0
    vertex -61.0236 25.19685 15
  endloop
endfacet
facet normal 1 0 0
  outer loop
    vertex -59.0236 14.17323 15
    vertex -59.0236 25.19685 2
    vertex -59.0236 25.19685 15
  endloop
endfacet
facet normal 1 0 0
  outer loop
    vertex -59.0236 14.17323 15
    vertex -59.0236 14.17323 2
    vertex -59.0236 25.19685 2
  endloop
endfacet
facet normal 0 0 1
  outer loop
    vertex -61.0236 25.19685 15
    vertex -61.0236 14.17323 15
    vertex -59.0236 25.19685 15
  endloop
endfacet
facet normal 0 0 1
  outer loop
    vertex -59.0236 25.19685 15
    vertex -61.0236 14.17323 15
    vertex -59.0236 14.17323 15
  endloop
endfacet
facet normal 0 0 1
  outer loop
    vertex -59.0236 25.19685 2
    vertex -59.0236 14.17323 2
    vertex -41.338565 25.19685 2
  endloop
endfacet
facet normal 0 0 1
  outer loop
    vertex -59.0236 14.17323 2
    vertex -41.338565 14.17323 2
    vertex -41.338565 25.19685 2
  endloop
endfacet
facet normal 0 0 -1
  outer loop
    vertex -61.0236 25.19685 0
    vertex -41.338565 25.19685 0
    vertex -61.0236 14.17323 0
  endloop
endfacet
facet normal 0 0 -1
  outer loop
    vertex -61.0236 14.17323 0
    vertex -41.338565 25.19685 0
    vertex -41.338565 14.17323 0
  endloop
endfacet
facet normal -1 0 0
  outer loop
    vertex -61.0236 5.51181 0
    vertex -61.0236 -5.51181 15
    vertex -61.0236 5.51181 15
  endloop
endfacet
facet normal -1 0 0
  outer loop
    vertex -61.0236 5.51181 0
    vertex -61.0236 -5.51181 0
    vertex -61.0236 -5.51181 15
  endloop
endfacet
facet normal 0 -1 0
  outer loop
    vertex -61.0236 -5.51181 15
    vertex -61.0236 -5.51181 0
    vertex -59.0236 -5.51181 15
  endloop
endfacet
facet normal 0 -1 0
  outer loop
    vertex -59.0236 -5.51181 15
    vertex -61.0236 -5.51181 0
    vertex -59.0236 -5.51181 2
  endloop
endfacet
facet normal 0 -1 0
  outer loop
    vertex -59.0236 -5.51181 2
    vertex -61.0236 -5.51181 0
    vertex -41.338565 -5.51181 2
  endloop
endfacet
facet normal 0 -1 0
  outer loop
    vertex -41.338565 -5.51181 0
    vertex -41.338565 -5.51181 2
    vertex -61.0236 -5.51181 0
  endloop
endfacet
facet normal 1 0 0
  outer loop
    vertex -41.338565 -5.51181 0
    vertex -41.338565 5.51181 2
    vertex -41.338565 -5.51181 2
  endloop
endfacet
facet normal 1 0 0
  outer loop
    vertex -41.338565 -5.51181 0
    vertex -41.338565 5.51181 0
    vertex -41.338565 5.51181 2
  endloop
endfacet
facet normal 0 1 0
  outer loop
    vertex -59.0236 5.51181 2
    vertex -41.338565 5.51181 2
    vertex -41.338565 5.51181 0
  endloop
endfacet
facet normal 0 1 0
  outer loop
    vertex -59.0236 5.51181 2
    vertex -41.338565 5.51181 0
    vertex -61.0236 5.51181 0
  endloop
endfacet
facet normal 0 1 0
  outer loop
    vertex -59.0236 5.51181 2
    vertex -61.0236 5.51181 15
    vertex -59.0236 5.51181 15
  endloop
endfacet
facet normal 0 1 0
  outer loop
    vertex -59.0236 5.51181 2
    vertex -61.0236 5.51181 0
    vertex -61.0236 5.51181 15
  endloop
endfacet
facet normal 1 0 0
  outer loop
    vertex -59.0236 -5.51181 15
    vertex -59.0236 5.51181 2
    vertex -59.0236 5.51181 15
  endloop
endfacet
facet normal 1 0 0
  outer loop
    vertex -59.0236 -5.51181 15
    vertex -59.0236 -5.51181 2
    vertex -59.0236 5.51181 2
  endloop
endfacet
facet normal 0 0 1
  outer loop
    vertex -61.0236 5.51181 15
    vertex -61.0236 -5.51181 15
    vertex -59.0236 5.51181 15
  endloop
endfacet
facet normal 0 0 1
  outer loop
    vertex -59.0236 5.51181 15
    vertex -61.0236 -5.51181 15
    vertex -59.0236 -5.51181 15
  endloop
endfacet
facet normal 0 0 1
  outer loop
    vertex -59.0236 5.51181 2
    vertex -59.0236 -5.51181 2
    vertex -41.338565 5.51181 2
  endloop
endfacet
facet normal 0 0 1
  outer loop
    vertex -59.0236 -5.51181 2
    vertex -41.338565 -5.51181 2
    vertex -41.338565 5.51181 2
  endloop
endfacet
facet normal 0 0 -1
  outer loop
    vertex -61.0236 5.51181 0
    vertex -41.338565 5.51181 0
    vertex -61.0236 -5.51181 0
  endloop
endfacet
facet normal 0 0 -1
  outer loop
    vertex -61.0236 -5.51181 0
    vertex -41.338565 5.51181 0
    vertex -41.338565 -5.51181 0
  endloop
endfacet
facet normal -1 0 0
  outer loop
    vertex -61.0236 -14.17323 0
    vertex -61.0236 -25.19685 15
    vertex -61.0236 -14.17323 15
  endloop
endfacet
facet normal -1 0 0
  outer loop
    vertex -61.0236 -14.17323 0
    vertex -61.0236 -25.19685 0
    vertex -61.0236 -25.19685 15
  endloop
endfacet
facet normal 0 -1 0
  outer loop
    vertex -61.0236 -25.19685 15
    vertex -61.0236 -25.19685 0
    vertex -59.0236 -25.19685 15
  endloop
endfacet
facet normal 0 -1 0
  outer loop
    vertex -59.0236 -25.19685 15
    vertex -61.0236 -25.19685 0
    vertex -59.0236 -25.19685 2
  endloop
endfacet
facet normal 0 -1 0
  outer loop
    vertex -59.0236 -25.19685 2
    vertex -61.0236 -25.19685 0
    vertex -41.338565 -25.19685 2
  endloop
endfacet
facet normal 0 -1 0
  outer loop
    vertex -41.338565 -25.19685 0
    vertex -41.338565 -25.19685 2
    vertex -61.0236 -25.19685 0
  endloop
endfacet
facet normal 1 0 0
  outer loop
    vertex -41.338565 -25.19685 0
    vertex -41.338565 -14.17323 2
    vertex -41.338565 -25.19685 2
  endloop
endfacet
facet normal 1 0 0
  outer loop
    vertex -41.338565 -25.19685 0
    vertex -41.338565 -14.17323 0
    vertex -41.338565 -14.17323 2
  endloop
endfacet
facet normal 0 1 0
  outer loop
    vertex -59.0236 -14.17323 2
    vertex -41.338565 -14.17323 2
    vertex -41.338565 -14.17323 0
  endloop
endfacet
facet normal 0 1 0
  outer loop
    vertex -59.0236 -14.17323 2
    vertex -41.338565 -14.17323 0
    vertex -61.0236 -14.17323 0
  endloop
endfacet
facet normal 0 1 0
  outer loop
    vertex -59.0236 -14.17323 2
    vertex -61.0236 -14.17323 15
    vertex -59.0236 -14.17323 15
  endloop
endfacet
facet normal 0 1 0
  outer loop
    vertex -59.0236 -14.17323 2
    vertex -61.0236 -14.17323 0
    vertex -61.0236 -14.17323 15
  endloop
endfacet
facet normal 1 0 0
  outer loop
    vertex -59.0236 -25.19685 15
    vertex -59.0236 -14.17323 2
    vertex -59.0236 -14.17323 15
  endloop
endfacet
facet normal 1 0 0
  outer loop
    vertex -59.0236 -25.19685 15
    vertex -59.0236 -25.19685 2
    vertex -59.0236 -14.17323 2
  endloop
endfacet
facet normal 0 0 1
  outer loop
    vertex -61.0236 -14.17323 15
    vertex -61.0236 -25.19685 15
    vertex -59.0236 -14.17323 15
  endloop
endfacet
facet normal 0 0 1
  outer loop
    vertex -59.0236 -14.17323 15
    vertex -61.0236 -25.19685 15
    vertex -59.0236 -25.19685 15
  endloop
endfacet
facet normal 0 0 1
  outer loop
    vertex -59.0236 -14.17323 2
    vertex -59.0236 -25.19685 2
    vertex -41.338565 -14.17323 2
  endloop
endfacet
facet normal 0 0 1
  outer loop
    vertex -59.0236 -25.19685 2
    vertex -41.338565 -25.19685 2
    vertex -41.338565 -14.17323 2
  endloop
endfacet
facet normal 0 0 -1
  outer loop
    vertex -61.0236 -14.17323 0
    vertex -41.338565 -14.17323 0
    vertex -61.0236 -25.19685 0
  endloop
endfacet
facet normal 0 0 -1
  outer loop
    vertex -61.0236 -25.19685 0
    vertex -41.338565 -14.17323 0
    vertex -41.338565 -25.19685 0
  endloop
endfacet
facet normal -1 0 0
  outer loop
    vertex -61.0236 -33.85827 0
    vertex -61.0236 -44.88189 15
    vertex -61.0236 -33.85827 15
  endloop
endfacet
facet normal -1 0 0
  outer loop
    vertex -61.0236 -33.85827 0
    vertex -61.0236 -44.88189 0
    vertex -61.0236 -44.88189 15
  endloop
endfacet
facet normal 0 -1 0
  outer loop
    vertex -61.0236 -44.88189 15
    vertex -61.0236 -44.88189 0
    vertex -59.0236 -44.88189 15
  endloop
endfacet
facet normal 0 -1 0
  outer loop
    vertex -59.0236 -44.88189 15
    vertex -61.0236 -44.88189 0
    vertex -59.0236 -44.88189 2
  endloop
endfacet
facet normal 0 -1 0
  outer loop
    vertex -59.0236 -44.88189 2
    vertex -61.0236 -44.88189 0
    vertex -41.338565 -44.88189 2
  endloop
endfacet
facet normal 0 -1 0
  outer loop
    vertex -41.338565 -44.88189 0
    vertex -41.338565 -44.88189 2
    vertex -61.0236 -44.88189 0
  endloop
endfacet
facet normal 1 0 0
  outer loop
    vertex -41.338565 -44.88189 0
    vertex -41.338565 -33.85827 2
    vertex -41.338565 -44.88189 2
  endloop
endfacet
facet normal 1 0 0
  outer loop
    vertex -41.338565 -44.88189 0
    vertex -41.338565 -33.85827 0
    vertex -41.338565 -33.85827 2
  endloop
endfacet
facet normal 0 1 0
  outer loop
    vertex -59.0236 -33.85827 2
    vertex -41.338565 -33.85827 2
    vertex -41.338565 -33.85827 0
  endloop
endfacet
facet normal 0 1 0
  outer loop
    vertex -59.0236 -33.85827 2
    vertex -41.338565 -33.85827 0
    vertex -61.0236 -33.85827 0
  endloop
endfacet
facet normal 0 1 0
  outer loop
    vertex -59.0236 -33.85827 2
    vertex -61.0236 -33.85827 15
    vertex -59.0236 -33.85827 15
  endloop
endfacet
facet normal 0 1 0
  outer loop
    vertex -59.0236 -33.85827 2
    vertex -61.0236 -33.85827 0
    vertex -61.0236 -33.85827 15
  endloop
endfacet
facet normal 1 0 0
  outer loop
    vertex -59.0236 -44.88189 15
    vertex -59.0236 -33.85827 2
    vertex -59.0236 -33.85827 15
  endloop
endfacet
facet normal 1 0 0
  outer loop
    vertex -59.0236 -44.88189 15
    vertex -59.0236 -44.88189 2
    vertex -59.0236 -33.85827 2
  endloop
endfacet
facet normal 0 0 1
  outer loop
    vertex -61.0236 -33.85827 15
    vertex -61.0236 -44.88189 15
    vertex -59.0236 -33.85827 15
  endloop
endfacet
facet normal 0 0 1
  outer loop
    vertex -59.0236 -33.85827 15
    vertex -61.0236 -44.88189 15
    vertex -59.0236 -44.88189 15
  endloop
endfacet
facet normal 0 0 1
  outer loop
    vertex -59.0236 -33.85827 2
    vertex -59.0236 -44.88189 2
    vertex -41.338565 -33.85827 2
  endloop
endfacet
facet normal 0 0 1
  outer loop
    vertex -59.0236 -44.88189 2
    vertex -41.338565 -44.88189 2
    vertex -41.338565 -33.85827 2
  endloop
endfacet
facet normal 0 0 -1
  outer loop
    vertex -61.0236 -33.85827 0
    vertex -41.338565 -33.85827 0
    vertex -61.0236 -44.88189 0
  endloop
endfacet
facet normal 0 0 -1
  outer loop
    vertex -61.0236 -44.88189 0
    vertex -41.338565 -33.85827 0
    vertex -41.338565 -44.88189 0
  endloop
endfacet
endsolid DRC10_2P4X1P65
