solid
 facet normal -1.000000e+00 -0.000000e+00 -0.000000e+00
   outer loop
     vertex -1.250000e+00  1.000000e+00  1.100000e+00
     vertex -1.250000e+00  1.000000e+00  0.000000e+00
     vertex -1.250000e+00 -1.000000e+00  0.000000e+00
   endloop
 endfacet
 facet normal -1.000000e+00 -0.000000e+00  0.000000e+00
   outer loop
     vertex -1.250000e+00  1.000000e+00  1.100000e+00
     vertex -1.250000e+00 -1.000000e+00  0.000000e+00
     vertex -1.250000e+00 -1.000000e+00  1.100000e+00
   endloop
 endfacet
 facet normal  1.000000e+00  0.000000e+00  0.000000e+00
   outer loop
     vertex -6.500000e-01 -1.000000e+00  0.000000e+00
     vertex -6.500000e-01  1.000000e+00  0.000000e+00
     vertex -6.500000e-01  1.000000e+00  1.100000e+00
   endloop
 endfacet
 facet normal  1.000000e+00 -0.000000e+00  0.000000e+00
   outer loop
     vertex -6.500000e-01 -1.000000e+00  1.100000e+00
     vertex -6.500000e-01 -1.000000e+00  0.000000e+00
     vertex -6.500000e-01  1.000000e+00  1.100000e+00
   endloop
 endfacet
 facet normal  0.000000e+00 -1.000000e+00  0.000000e+00
   outer loop
     vertex -1.250000e+00 -1.000000e+00  0.000000e+00
     vertex -6.500000e-01 -1.000000e+00  0.000000e+00
     vertex -6.500000e-01 -1.000000e+00  1.100000e+00
   endloop
 endfacet
 facet normal  0.000000e+00 -1.000000e+00  0.000000e+00
   outer loop
     vertex -1.250000e+00 -1.000000e+00  1.100000e+00
     vertex -1.250000e+00 -1.000000e+00  0.000000e+00
     vertex -6.500000e-01 -1.000000e+00  1.100000e+00
   endloop
 endfacet
 facet normal  0.000000e+00  1.000000e+00  0.000000e+00
   outer loop
     vertex -6.500000e-01  1.000000e+00  1.100000e+00
     vertex -6.500000e-01  1.000000e+00  0.000000e+00
     vertex -1.250000e+00  1.000000e+00  0.000000e+00
   endloop
 endfacet
 facet normal  0.000000e+00  1.000000e+00 -0.000000e+00
   outer loop
     vertex -6.500000e-01  1.000000e+00  1.100000e+00
     vertex -1.250000e+00  1.000000e+00  0.000000e+00
     vertex -1.250000e+00  1.000000e+00  1.100000e+00
   endloop
 endfacet
 facet normal  0.000000e+00  0.000000e+00 -1.000000e+00
   outer loop
     vertex -1.250000e+00 -1.000000e+00  0.000000e+00
     vertex -1.250000e+00  1.000000e+00  0.000000e+00
     vertex -6.500000e-01  1.000000e+00  0.000000e+00
   endloop
 endfacet
 facet normal  0.000000e+00  0.000000e+00 -1.000000e+00
   outer loop
     vertex -6.500000e-01 -1.000000e+00  0.000000e+00
     vertex -1.250000e+00 -1.000000e+00  0.000000e+00
     vertex -6.500000e-01  1.000000e+00  0.000000e+00
   endloop
 endfacet
 facet normal  0.000000e+00  0.000000e+00  1.000000e+00
   outer loop
     vertex -6.500000e-01  1.000000e+00  1.100000e+00
     vertex -1.250000e+00  1.000000e+00  1.100000e+00
     vertex -1.250000e+00 -1.000000e+00  1.100000e+00
   endloop
 endfacet
 facet normal -0.000000e+00  0.000000e+00  1.000000e+00
   outer loop
     vertex -6.500000e-01  1.000000e+00  1.100000e+00
     vertex -1.250000e+00 -1.000000e+00  1.100000e+00
     vertex -6.500000e-01 -1.000000e+00  1.100000e+00
   endloop
 endfacet
 facet normal -1.000000e+00 -0.000000e+00 -0.000000e+00
   outer loop
     vertex  6.500000e-01  1.000000e+00  1.100000e+00
     vertex  6.500000e-01  1.000000e+00  0.000000e+00
     vertex  6.500000e-01 -1.000000e+00  0.000000e+00
   endloop
 endfacet
 facet normal -1.000000e+00 -0.000000e+00  0.000000e+00
   outer loop
     vertex  6.500000e-01  1.000000e+00  1.100000e+00
     vertex  6.500000e-01 -1.000000e+00  0.000000e+00
     vertex  6.500000e-01 -1.000000e+00  1.100000e+00
   endloop
 endfacet
 facet normal  1.000000e+00  0.000000e+00  0.000000e+00
   outer loop
     vertex  1.250000e+00 -1.000000e+00  0.000000e+00
     vertex  1.250000e+00  1.000000e+00  0.000000e+00
     vertex  1.250000e+00  1.000000e+00  1.100000e+00
   endloop
 endfacet
 facet normal  1.000000e+00 -0.000000e+00  0.000000e+00
   outer loop
     vertex  1.250000e+00 -1.000000e+00  1.100000e+00
     vertex  1.250000e+00 -1.000000e+00  0.000000e+00
     vertex  1.250000e+00  1.000000e+00  1.100000e+00
   endloop
 endfacet
 facet normal  0.000000e+00 -1.000000e+00  0.000000e+00
   outer loop
     vertex  6.500000e-01 -1.000000e+00  0.000000e+00
     vertex  1.250000e+00 -1.000000e+00  0.000000e+00
     vertex  1.250000e+00 -1.000000e+00  1.100000e+00
   endloop
 endfacet
 facet normal  0.000000e+00 -1.000000e+00  0.000000e+00
   outer loop
     vertex  6.500000e-01 -1.000000e+00  1.100000e+00
     vertex  6.500000e-01 -1.000000e+00  0.000000e+00
     vertex  1.250000e+00 -1.000000e+00  1.100000e+00
   endloop
 endfacet
 facet normal  0.000000e+00  1.000000e+00  0.000000e+00
   outer loop
     vertex  1.250000e+00  1.000000e+00  1.100000e+00
     vertex  1.250000e+00  1.000000e+00  0.000000e+00
     vertex  6.500000e-01  1.000000e+00  0.000000e+00
   endloop
 endfacet
 facet normal  0.000000e+00  1.000000e+00 -0.000000e+00
   outer loop
     vertex  1.250000e+00  1.000000e+00  1.100000e+00
     vertex  6.500000e-01  1.000000e+00  0.000000e+00
     vertex  6.500000e-01  1.000000e+00  1.100000e+00
   endloop
 endfacet
 facet normal  0.000000e+00  0.000000e+00 -1.000000e+00
   outer loop
     vertex  6.500000e-01 -1.000000e+00  0.000000e+00
     vertex  6.500000e-01  1.000000e+00  0.000000e+00
     vertex  1.250000e+00  1.000000e+00  0.000000e+00
   endloop
 endfacet
 facet normal  0.000000e+00  0.000000e+00 -1.000000e+00
   outer loop
     vertex  1.250000e+00 -1.000000e+00  0.000000e+00
     vertex  6.500000e-01 -1.000000e+00  0.000000e+00
     vertex  1.250000e+00  1.000000e+00  0.000000e+00
   endloop
 endfacet
 facet normal  0.000000e+00  0.000000e+00  1.000000e+00
   outer loop
     vertex  1.250000e+00  1.000000e+00  1.100000e+00
     vertex  6.500000e-01  1.000000e+00  1.100000e+00
     vertex  6.500000e-01 -1.000000e+00  1.100000e+00
   endloop
 endfacet
 facet normal -0.000000e+00  0.000000e+00  1.000000e+00
   outer loop
     vertex  1.250000e+00  1.000000e+00  1.100000e+00
     vertex  6.500000e-01 -1.000000e+00  1.100000e+00
     vertex  1.250000e+00 -1.000000e+00  1.100000e+00
   endloop
 endfacet
 facet normal -1.000000e+00 -0.000000e+00 -0.000000e+00
   outer loop
     vertex -6.500000e-01  9.800000e-01  1.089000e+00
     vertex -6.500000e-01  9.800000e-01  1.100000e-02
     vertex -6.500000e-01 -9.800000e-01  1.089000e+00
   endloop
 endfacet
 facet normal -1.000000e+00  0.000000e+00  0.000000e+00
   outer loop
     vertex -6.500000e-01  9.800000e-01  1.100000e-02
     vertex -6.500000e-01 -9.800000e-01  1.100000e-02
     vertex -6.500000e-01 -9.800000e-01  1.089000e+00
   endloop
 endfacet
 facet normal  1.000000e+00 -0.000000e+00  0.000000e+00
   outer loop
     vertex  6.500000e-01 -9.800000e-01  1.089000e+00
     vertex  6.500000e-01  9.800000e-01  1.100000e-02
     vertex  6.500000e-01  9.800000e-01  1.089000e+00
   endloop
 endfacet
 facet normal  1.000000e+00 -0.000000e+00  0.000000e+00
   outer loop
     vertex  6.500000e-01 -9.800000e-01  1.089000e+00
     vertex  6.500000e-01 -9.800000e-01  1.100000e-02
     vertex  6.500000e-01  9.800000e-01  1.100000e-02
   endloop
 endfacet
 facet normal  0.000000e+00 -1.000000e+00  0.000000e+00
   outer loop
     vertex -6.500000e-01 -9.800000e-01  1.100000e-02
     vertex  6.500000e-01 -9.800000e-01  1.100000e-02
     vertex  6.500000e-01 -9.800000e-01  1.089000e+00
   endloop
 endfacet
 facet normal  0.000000e+00 -1.000000e+00  0.000000e+00
   outer loop
     vertex -6.500000e-01 -9.800000e-01  1.089000e+00
     vertex -6.500000e-01 -9.800000e-01  1.100000e-02
     vertex  6.500000e-01 -9.800000e-01  1.089000e+00
   endloop
 endfacet
 facet normal  0.000000e+00  1.000000e+00  0.000000e+00
   outer loop
     vertex  6.500000e-01  9.800000e-01  1.089000e+00
     vertex  6.500000e-01  9.800000e-01  1.100000e-02
     vertex -6.500000e-01  9.800000e-01  1.100000e-02
   endloop
 endfacet
 facet normal  0.000000e+00  1.000000e+00 -0.000000e+00
   outer loop
     vertex  6.500000e-01  9.800000e-01  1.089000e+00
     vertex -6.500000e-01  9.800000e-01  1.100000e-02
     vertex -6.500000e-01  9.800000e-01  1.089000e+00
   endloop
 endfacet
 facet normal  0.000000e+00  0.000000e+00 -1.000000e+00
   outer loop
     vertex -6.500000e-01 -9.800000e-01  1.100000e-02
     vertex -6.500000e-01  9.800000e-01  1.100000e-02
     vertex  6.500000e-01  9.800000e-01  1.100000e-02
   endloop
 endfacet
 facet normal  0.000000e+00  0.000000e+00 -1.000000e+00
   outer loop
     vertex  6.500000e-01 -9.800000e-01  1.100000e-02
     vertex -6.500000e-01 -9.800000e-01  1.100000e-02
     vertex  6.500000e-01  9.800000e-01  1.100000e-02
   endloop
 endfacet
 facet normal  0.000000e+00  0.000000e+00  1.000000e+00
   outer loop
     vertex  6.500000e-01  9.800000e-01  1.089000e+00
     vertex -6.500000e-01  9.800000e-01  1.089000e+00
     vertex -6.500000e-01 -9.800000e-01  1.089000e+00
   endloop
 endfacet
 facet normal -0.000000e+00  0.000000e+00  1.000000e+00
   outer loop
     vertex  6.500000e-01  9.800000e-01  1.089000e+00
     vertex -6.500000e-01 -9.800000e-01  1.089000e+00
     vertex  6.500000e-01 -9.800000e-01  1.089000e+00
   endloop
 endfacet
endsolid
