solid MSOP8
facet normal 0 0 -1
  outer loop
    vertex -43.0946534665006 38.4 43
    vertex -40.1032583612707 38.9950254821492 43
    vertex -40.0446534665006 38.4 43
  endloop
endfacet
facet normal 0 0 -1
  outer loop
    vertex -43.0946534665006 38.4 43
    vertex -40.2768208923411 39.5671844687135 43
    vertex -40.1032583612707 38.9950254821492 43
  endloop
endfacet
facet normal 0 0 -1
  outer loop
    vertex -43.0946534665006 38.4 43
    vertex -40.5586711489778 40.0944892107098 43
    vertex -40.2768208923411 39.5671844687135 43
  endloop
endfacet
facet normal 0 0 -1
  outer loop
    vertex -43.0946534665006 38.4 43
    vertex -40.9379777838816 40.556675682619 43
    vertex -40.5586711489778 40.0944892107098 43
  endloop
endfacet
facet normal 0 0 -1
  outer loop
    vertex -43.0946534665006 38.4 43
    vertex -41.4001642557908 40.9359823175228 43
    vertex -40.9379777838816 40.556675682619 43
  endloop
endfacet
facet normal 0 0 -1
  outer loop
    vertex -43.0946534665006 38.4 43
    vertex -41.927468997787 41.2178325741594 43
    vertex -41.4001642557908 40.9359823175228 43
  endloop
endfacet
facet normal 0 0 -1
  outer loop
    vertex -43.0946534665006 38.4 43
    vertex -42.4996279843514 41.3913951052299 43
    vertex -41.927468997787 41.2178325741594 43
  endloop
endfacet
facet normal 0 0 -1
  outer loop
    vertex -43.0946534665006 38.4 43
    vertex -43.0946534665006 41.45 43
    vertex -42.4996279843514 41.3913951052299 43
  endloop
endfacet
facet normal 0 0 -1
  outer loop
    vertex -43.0946534665006 38.4 43
    vertex -43.6896789486498 41.3913951052299 43
    vertex -43.0946534665006 41.45 43
  endloop
endfacet
facet normal 0 0 -1
  outer loop
    vertex -43.0946534665006 38.4 43
    vertex -44.2618379352141 41.2178325741594 43
    vertex -43.6896789486498 41.3913951052299 43
  endloop
endfacet
facet normal 0 0 -1
  outer loop
    vertex -43.0946534665006 38.4 43
    vertex -44.7891426772104 40.9359823175228 43
    vertex -44.2618379352141 41.2178325741594 43
  endloop
endfacet
facet normal 0 0 -1
  outer loop
    vertex -43.0946534665006 38.4 43
    vertex -45.2513291491195 40.556675682619 43
    vertex -44.7891426772104 40.9359823175228 43
  endloop
endfacet
facet normal 0 0 -1
  outer loop
    vertex -43.0946534665006 38.4 43
    vertex -45.6306357840233 40.0944892107098 43
    vertex -45.2513291491195 40.556675682619 43
  endloop
endfacet
facet normal 0 0 -1
  outer loop
    vertex -43.0946534665006 38.4 43
    vertex -45.91248604066 39.5671844687135 43
    vertex -45.6306357840233 40.0944892107098 43
  endloop
endfacet
facet normal 0 0 -1
  outer loop
    vertex -43.0946534665006 38.4 43
    vertex -46.0860485717304 38.9950254821492 43
    vertex -45.91248604066 39.5671844687135 43
  endloop
endfacet
facet normal 0 0 -1
  outer loop
    vertex -43.0946534665006 38.4 43
    vertex -46.1446534665006 38.4 43
    vertex -46.0860485717304 38.9950254821492 43
  endloop
endfacet
facet normal 0 0 -1
  outer loop
    vertex -43.0946534665006 38.4 43
    vertex -46.0860485717304 37.8049745178508 43
    vertex -46.1446534665006 38.4 43
  endloop
endfacet
facet normal 0 0 -1
  outer loop
    vertex -43.0946534665006 38.4 43
    vertex -45.91248604066 37.2328155312865 43
    vertex -46.0860485717304 37.8049745178508 43
  endloop
endfacet
facet normal 0 0 -1
  outer loop
    vertex -43.0946534665006 38.4 43
    vertex -45.6306357840233 36.7055107892902 43
    vertex -45.91248604066 37.2328155312865 43
  endloop
endfacet
facet normal 0 0 -1
  outer loop
    vertex -43.0946534665006 38.4 43
    vertex -45.2513291491195 36.243324317381 43
    vertex -45.6306357840233 36.7055107892902 43
  endloop
endfacet
facet normal 0 0 -1
  outer loop
    vertex -43.0946534665006 38.4 43
    vertex -44.7891426772104 35.8640176824772 43
    vertex -45.2513291491195 36.243324317381 43
  endloop
endfacet
facet normal 0 0 -1
  outer loop
    vertex -43.0946534665006 38.4 43
    vertex -44.2618379352141 35.5821674258406 43
    vertex -44.7891426772104 35.8640176824772 43
  endloop
endfacet
facet normal 0 0 -1
  outer loop
    vertex -43.0946534665006 38.4 43
    vertex -43.6896789486498 35.4086048947702 43
    vertex -44.2618379352141 35.5821674258406 43
  endloop
endfacet
facet normal 0 0 -1
  outer loop
    vertex -43.0946534665006 38.4 43
    vertex -43.0946534665006 35.35 43
    vertex -43.6896789486498 35.4086048947702 43
  endloop
endfacet
facet normal 0 0 -1
  outer loop
    vertex -43.0946534665006 38.4 43
    vertex -42.4996279843514 35.4086048947702 43
    vertex -43.0946534665006 35.35 43
  endloop
endfacet
facet normal 0 0 -1
  outer loop
    vertex -43.0946534665006 38.4 43
    vertex -41.927468997787 35.5821674258406 43
    vertex -42.4996279843514 35.4086048947702 43
  endloop
endfacet
facet normal 0 0 -1
  outer loop
    vertex -43.0946534665006 38.4 43
    vertex -41.4001642557908 35.8640176824772 43
    vertex -41.927468997787 35.5821674258406 43
  endloop
endfacet
facet normal 0 0 -1
  outer loop
    vertex -43.0946534665006 38.4 43
    vertex -40.9379777838816 36.243324317381 43
    vertex -41.4001642557908 35.8640176824772 43
  endloop
endfacet
facet normal 0 0 -1
  outer loop
    vertex -43.0946534665006 38.4 43
    vertex -40.5586711489778 36.7055107892902 43
    vertex -40.9379777838816 36.243324317381 43
  endloop
endfacet
facet normal 0 0 -1
  outer loop
    vertex -43.0946534665006 38.4 43
    vertex -40.2768208923411 37.2328155312865 43
    vertex -40.5586711489778 36.7055107892902 43
  endloop
endfacet
facet normal 0 0 -1
  outer loop
    vertex -43.0946534665006 38.4 43
    vertex -40.1032583612707 37.8049745178508 43
    vertex -40.2768208923411 37.2328155312865 43
  endloop
endfacet
facet normal 0 0 -1
  outer loop
    vertex -43.0946534665006 38.4 43
    vertex -40.0446534665006 38.4 43
    vertex -40.1032583612707 37.8049745178508 43
  endloop
endfacet
facet normal 0 0 1
  outer loop
    vertex -43.0946534665006 38.4 43.1
    vertex -40.0446534665006 38.4 43.1
    vertex -40.1032583612707 38.9950254821492 43.1
  endloop
endfacet
facet normal 0 0 1
  outer loop
    vertex -43.0946534665006 38.4 43.1
    vertex -40.1032583612707 38.9950254821492 43.1
    vertex -40.2768208923411 39.5671844687135 43.1
  endloop
endfacet
facet normal 0 0 1
  outer loop
    vertex -43.0946534665006 38.4 43.1
    vertex -40.2768208923411 39.5671844687135 43.1
    vertex -40.5586711489778 40.0944892107098 43.1
  endloop
endfacet
facet normal 0 0 1
  outer loop
    vertex -43.0946534665006 38.4 43.1
    vertex -40.5586711489778 40.0944892107098 43.1
    vertex -40.9379777838816 40.556675682619 43.1
  endloop
endfacet
facet normal 0 0 1
  outer loop
    vertex -43.0946534665006 38.4 43.1
    vertex -40.9379777838816 40.556675682619 43.1
    vertex -41.4001642557908 40.9359823175228 43.1
  endloop
endfacet
facet normal 0 0 1
  outer loop
    vertex -43.0946534665006 38.4 43.1
    vertex -41.4001642557908 40.9359823175228 43.1
    vertex -41.927468997787 41.2178325741594 43.1
  endloop
endfacet
facet normal 0 0 1
  outer loop
    vertex -43.0946534665006 38.4 43.1
    vertex -41.927468997787 41.2178325741594 43.1
    vertex -42.4996279843514 41.3913951052299 43.1
  endloop
endfacet
facet normal 0 0 1
  outer loop
    vertex -43.0946534665006 38.4 43.1
    vertex -42.4996279843514 41.3913951052299 43.1
    vertex -43.0946534665006 41.45 43.1
  endloop
endfacet
facet normal 0 0 1
  outer loop
    vertex -43.0946534665006 38.4 43.1
    vertex -43.0946534665006 41.45 43.1
    vertex -43.6896789486498 41.3913951052299 43.1
  endloop
endfacet
facet normal 0 0 1
  outer loop
    vertex -43.0946534665006 38.4 43.1
    vertex -43.6896789486498 41.3913951052299 43.1
    vertex -44.2618379352141 41.2178325741594 43.1
  endloop
endfacet
facet normal 0 0 1
  outer loop
    vertex -43.0946534665006 38.4 43.1
    vertex -44.2618379352141 41.2178325741594 43.1
    vertex -44.7891426772104 40.9359823175228 43.1
  endloop
endfacet
facet normal 0 0 1
  outer loop
    vertex -43.0946534665006 38.4 43.1
    vertex -44.7891426772104 40.9359823175228 43.1
    vertex -45.2513291491195 40.556675682619 43.1
  endloop
endfacet
facet normal 0 0 1
  outer loop
    vertex -43.0946534665006 38.4 43.1
    vertex -45.2513291491195 40.556675682619 43.1
    vertex -45.6306357840233 40.0944892107098 43.1
  endloop
endfacet
facet normal 0 0 1
  outer loop
    vertex -43.0946534665006 38.4 43.1
    vertex -45.6306357840233 40.0944892107098 43.1
    vertex -45.91248604066 39.5671844687135 43.1
  endloop
endfacet
facet normal 0 0 1
  outer loop
    vertex -43.0946534665006 38.4 43.1
    vertex -45.91248604066 39.5671844687135 43.1
    vertex -46.0860485717304 38.9950254821492 43.1
  endloop
endfacet
facet normal 0 0 1
  outer loop
    vertex -43.0946534665006 38.4 43.1
    vertex -46.0860485717304 38.9950254821492 43.1
    vertex -46.1446534665006 38.4 43.1
  endloop
endfacet
facet normal 0 0 1
  outer loop
    vertex -43.0946534665006 38.4 43.1
    vertex -46.1446534665006 38.4 43.1
    vertex -46.0860485717304 37.8049745178508 43.1
  endloop
endfacet
facet normal 0 0 1
  outer loop
    vertex -43.0946534665006 38.4 43.1
    vertex -46.0860485717304 37.8049745178508 43.1
    vertex -45.91248604066 37.2328155312865 43.1
  endloop
endfacet
facet normal 0 0 1
  outer loop
    vertex -43.0946534665006 38.4 43.1
    vertex -45.91248604066 37.2328155312865 43.1
    vertex -45.6306357840233 36.7055107892902 43.1
  endloop
endfacet
facet normal 0 0 1
  outer loop
    vertex -43.0946534665006 38.4 43.1
    vertex -45.6306357840233 36.7055107892902 43.1
    vertex -45.2513291491195 36.243324317381 43.1
  endloop
endfacet
facet normal 0 0 1
  outer loop
    vertex -43.0946534665006 38.4 43.1
    vertex -45.2513291491195 36.243324317381 43.1
    vertex -44.7891426772104 35.8640176824772 43.1
  endloop
endfacet
facet normal 0 0 1
  outer loop
    vertex -43.0946534665006 38.4 43.1
    vertex -44.7891426772104 35.8640176824772 43.1
    vertex -44.2618379352141 35.5821674258406 43.1
  endloop
endfacet
facet normal 0 0 1
  outer loop
    vertex -43.0946534665006 38.4 43.1
    vertex -44.2618379352141 35.5821674258406 43.1
    vertex -43.6896789486498 35.4086048947702 43.1
  endloop
endfacet
facet normal 0 0 1
  outer loop
    vertex -43.0946534665006 38.4 43.1
    vertex -43.6896789486498 35.4086048947702 43.1
    vertex -43.0946534665006 35.35 43.1
  endloop
endfacet
facet normal 0 0 1
  outer loop
    vertex -43.0946534665006 38.4 43.1
    vertex -43.0946534665006 35.35 43.1
    vertex -42.4996279843514 35.4086048947702 43.1
  endloop
endfacet
facet normal 0 0 1
  outer loop
    vertex -43.0946534665006 38.4 43.1
    vertex -42.4996279843514 35.4086048947702 43.1
    vertex -41.927468997787 35.5821674258406 43.1
  endloop
endfacet
facet normal 0 0 1
  outer loop
    vertex -43.0946534665006 38.4 43.1
    vertex -41.927468997787 35.5821674258406 43.1
    vertex -41.4001642557908 35.8640176824772 43.1
  endloop
endfacet
facet normal 0 0 1
  outer loop
    vertex -43.0946534665006 38.4 43.1
    vertex -41.4001642557908 35.8640176824772 43.1
    vertex -40.9379777838816 36.243324317381 43.1
  endloop
endfacet
facet normal 0 0 1
  outer loop
    vertex -43.0946534665006 38.4 43.1
    vertex -40.9379777838816 36.243324317381 43.1
    vertex -40.5586711489778 36.7055107892902 43.1
  endloop
endfacet
facet normal 0 0 1
  outer loop
    vertex -43.0946534665006 38.4 43.1
    vertex -40.5586711489778 36.7055107892902 43.1
    vertex -40.2768208923411 37.2328155312865 43.1
  endloop
endfacet
facet normal 0 0 1
  outer loop
    vertex -43.0946534665006 38.4 43.1
    vertex -40.2768208923411 37.2328155312865 43.1
    vertex -40.1032583612707 37.8049745178508 43.1
  endloop
endfacet
facet normal 0 0 1
  outer loop
    vertex -43.0946534665006 38.4 43.1
    vertex -40.1032583612707 37.8049745178508 43.1
    vertex -40.0446534665006 38.4 43.1
  endloop
endfacet
facet normal .995184726672205 9.80171403294784E-02 0
  outer loop
    vertex -40.0446534665006 38.4 43
    vertex -40.1032583612707 38.9950254821492 43.1
    vertex -40.0446534665006 38.4 43.1
  endloop
endfacet
facet normal .956940335732216 .290284677254439 0
  outer loop
    vertex -40.1032583612707 38.9950254821492 43
    vertex -40.2768208923411 39.5671844687135 43.1
    vertex -40.1032583612707 38.9950254821492 43.1
  endloop
endfacet
facet normal .881921264348342 .471396736826021 0
  outer loop
    vertex -40.2768208923411 39.5671844687135 43
    vertex -40.5586711489778 40.0944892107098 43.1
    vertex -40.2768208923411 39.5671844687135 43.1
  endloop
endfacet
facet normal .773010453362743 .634393284163638 0
  outer loop
    vertex -40.5586711489778 40.0944892107098 43
    vertex -40.9379777838816 40.556675682619 43.1
    vertex -40.5586711489778 40.0944892107098 43.1
  endloop
endfacet
facet normal .634393284163638 .773010453362743 0
  outer loop
    vertex -40.9379777838816 40.556675682619 43
    vertex -41.4001642557908 40.9359823175228 43.1
    vertex -40.9379777838816 40.556675682619 43.1
  endloop
endfacet
facet normal .471396736825961 .881921264348375 0
  outer loop
    vertex -41.4001642557908 40.9359823175228 43
    vertex -41.927468997787 41.2178325741594 43.1
    vertex -41.4001642557908 40.9359823175228 43.1
  endloop
endfacet
facet normal .290284677254535 .956940335732187 0
  outer loop
    vertex -41.927468997787 41.2178325741594 43
    vertex -42.4996279843514 41.3913951052299 43.1
    vertex -41.927468997787 41.2178325741594 43.1
  endloop
endfacet
facet normal 9.80171403294902E-02 .995184726672204 0
  outer loop
    vertex -42.4996279843514 41.3913951052299 43
    vertex -43.0946534665006 41.45 43.1
    vertex -42.4996279843514 41.3913951052299 43.1
  endloop
endfacet
facet normal -9.80171403294914E-02 .995184726672204 0
  outer loop
    vertex -43.0946534665006 41.45 43
    vertex -43.6896789486498 41.3913951052299 43.1
    vertex -43.0946534665006 41.45 43.1
  endloop
endfacet
facet normal -.290284677254577 .956940335732174 0
  outer loop
    vertex -43.6896789486498 41.3913951052299 43
    vertex -44.2618379352141 41.2178325741594 43.1
    vertex -43.6896789486498 41.3913951052299 43.1
  endloop
endfacet
facet normal -.471396736825897 .881921264348409 0
  outer loop
    vertex -44.2618379352141 41.2178325741594 43
    vertex -44.7891426772104 40.9359823175228 43.1
    vertex -44.2618379352141 41.2178325741594 43.1
  endloop
endfacet
facet normal -.63439328416372 .773010453362676 0
  outer loop
    vertex -44.7891426772104 40.9359823175228 43
    vertex -45.2513291491195 40.556675682619 43.1
    vertex -44.7891426772104 40.9359823175228 43.1
  endloop
endfacet
facet normal -.773010453362743 .634393284163638 0
  outer loop
    vertex -45.2513291491195 40.556675682619 43
    vertex -45.6306357840233 40.0944892107098 43.1
    vertex -45.2513291491195 40.556675682619 43.1
  endloop
endfacet
facet normal -.881921264348342 .471396736826021 0
  outer loop
    vertex -45.6306357840233 40.0944892107098 43
    vertex -45.91248604066 39.5671844687135 43.1
    vertex -45.6306357840233 40.0944892107098 43.1
  endloop
endfacet
facet normal -.956940335732216 .290284677254439 0
  outer loop
    vertex -45.91248604066 39.5671844687135 43
    vertex -46.0860485717304 38.9950254821492 43.1
    vertex -45.91248604066 39.5671844687135 43.1
  endloop
endfacet
facet normal -.995184726672189 9.80171403296432E-02 0
  outer loop
    vertex -46.0860485717304 38.9950254821492 43
    vertex -46.1446534665006 38.4 43.1
    vertex -46.0860485717304 38.9950254821492 43.1
  endloop
endfacet
facet normal -.995184726672189 -9.80171403296444E-02 0
  outer loop
    vertex -46.1446534665006 38.4 43
    vertex -46.0860485717304 37.8049745178508 43.1
    vertex -46.1446534665006 38.4 43.1
  endloop
endfacet
facet normal -.956940335732217 -.290284677254436 0
  outer loop
    vertex -46.0860485717304 37.8049745178508 43
    vertex -45.91248604066 37.2328155312865 43.1
    vertex -46.0860485717304 37.8049745178508 43.1
  endloop
endfacet
facet normal -.88192126434834 -.471396736826026 0
  outer loop
    vertex -45.91248604066 37.2328155312865 43
    vertex -45.6306357840233 36.7055107892902 43.1
    vertex -45.91248604066 37.2328155312865 43.1
  endloop
endfacet
facet normal -.773010453362743 -.634393284163638 0
  outer loop
    vertex -45.6306357840233 36.7055107892902 43
    vertex -45.2513291491195 36.243324317381 43.1
    vertex -45.6306357840233 36.7055107892902 43.1
  endloop
endfacet
facet normal -.634393284163727 -.77301045336267 0
  outer loop
    vertex -45.2513291491195 36.243324317381 43
    vertex -44.7891426772104 35.8640176824772 43.1
    vertex -45.2513291491195 36.243324317381 43.1
  endloop
endfacet
facet normal -.471396736825888 -.881921264348414 0
  outer loop
    vertex -44.7891426772104 35.8640176824772 43
    vertex -44.2618379352141 35.5821674258406 43.1
    vertex -44.7891426772104 35.8640176824772 43.1
  endloop
endfacet
facet normal -.290284677254436 -.956940335732217 0
  outer loop
    vertex -44.2618379352141 35.5821674258406 43
    vertex -43.6896789486498 35.4086048947702 43.1
    vertex -44.2618379352141 35.5821674258406 43.1
  endloop
endfacet
facet normal -9.80171403296444E-02 -.995184726672189 0
  outer loop
    vertex -43.6896789486498 35.4086048947702 43
    vertex -43.0946534665006 35.35 43.1
    vertex -43.6896789486498 35.4086048947702 43.1
  endloop
endfacet
facet normal 9.80171403296432E-02 -.995184726672189 0
  outer loop
    vertex -43.0946534665006 35.35 43
    vertex -42.4996279843514 35.4086048947702 43.1
    vertex -43.0946534665006 35.35 43.1
  endloop
endfacet
facet normal .290284677254393 -.95694033573223 0
  outer loop
    vertex -42.4996279843514 35.4086048947702 43
    vertex -41.927468997787 35.5821674258406 43.1
    vertex -42.4996279843514 35.4086048947702 43.1
  endloop
endfacet
facet normal .471396736825952 -.881921264348379 0
  outer loop
    vertex -41.927468997787 35.5821674258406 43
    vertex -41.4001642557908 35.8640176824772 43.1
    vertex -41.927468997787 35.5821674258406 43.1
  endloop
endfacet
facet normal .634393284163645 -.773010453362737 0
  outer loop
    vertex -41.4001642557908 35.8640176824772 43
    vertex -40.9379777838816 36.243324317381 43.1
    vertex -41.4001642557908 35.8640176824772 43.1
  endloop
endfacet
facet normal .773010453362743 -.634393284163638 0
  outer loop
    vertex -40.9379777838816 36.243324317381 43
    vertex -40.5586711489778 36.7055107892902 43.1
    vertex -40.9379777838816 36.243324317381 43.1
  endloop
endfacet
facet normal .88192126434834 -.471396736826026 0
  outer loop
    vertex -40.5586711489778 36.7055107892902 43
    vertex -40.2768208923411 37.2328155312865 43.1
    vertex -40.5586711489778 36.7055107892902 43.1
  endloop
endfacet
facet normal .956940335732217 -.290284677254436 0
  outer loop
    vertex -40.2768208923411 37.2328155312865 43
    vertex -40.1032583612707 37.8049745178508 43.1
    vertex -40.2768208923411 37.2328155312865 43.1
  endloop
endfacet
facet normal .995184726672205 -9.80171403294796E-02 0
  outer loop
    vertex -40.1032583612707 37.8049745178508 43
    vertex -40.0446534665006 38.4 43.1
    vertex -40.1032583612707 37.8049745178508 43.1
  endloop
endfacet
facet normal .995184726672205 9.80171403294784E-02 0
  outer loop
    vertex -40.1032583612707 38.9950254821492 43
    vertex -40.1032583612707 38.9950254821492 43.1
    vertex -40.0446534665006 38.4 43
  endloop
endfacet
facet normal .956940335732216 .290284677254439 0
  outer loop
    vertex -40.2768208923411 39.5671844687135 43
    vertex -40.2768208923411 39.5671844687135 43.1
    vertex -40.1032583612707 38.9950254821492 43
  endloop
endfacet
facet normal .881921264348342 .471396736826021 0
  outer loop
    vertex -40.5586711489778 40.0944892107098 43
    vertex -40.5586711489778 40.0944892107098 43.1
    vertex -40.2768208923411 39.5671844687135 43
  endloop
endfacet
facet normal .773010453362743 .634393284163638 0
  outer loop
    vertex -40.9379777838816 40.556675682619 43
    vertex -40.9379777838816 40.556675682619 43.1
    vertex -40.5586711489778 40.0944892107098 43
  endloop
endfacet
facet normal .634393284163638 .773010453362743 0
  outer loop
    vertex -41.4001642557908 40.9359823175228 43
    vertex -41.4001642557908 40.9359823175228 43.1
    vertex -40.9379777838816 40.556675682619 43
  endloop
endfacet
facet normal .471396736825961 .881921264348375 0
  outer loop
    vertex -41.927468997787 41.2178325741594 43
    vertex -41.927468997787 41.2178325741594 43.1
    vertex -41.4001642557908 40.9359823175228 43
  endloop
endfacet
facet normal .290284677254535 .956940335732187 0
  outer loop
    vertex -42.4996279843514 41.3913951052299 43
    vertex -42.4996279843514 41.3913951052299 43.1
    vertex -41.927468997787 41.2178325741594 43
  endloop
endfacet
facet normal 9.80171403294902E-02 .995184726672204 0
  outer loop
    vertex -43.0946534665006 41.45 43
    vertex -43.0946534665006 41.45 43.1
    vertex -42.4996279843514 41.3913951052299 43
  endloop
endfacet
facet normal -9.80171403294914E-02 .995184726672204 0
  outer loop
    vertex -43.6896789486498 41.3913951052299 43
    vertex -43.6896789486498 41.3913951052299 43.1
    vertex -43.0946534665006 41.45 43
  endloop
endfacet
facet normal -.290284677254577 .956940335732174 0
  outer loop
    vertex -44.2618379352141 41.2178325741594 43
    vertex -44.2618379352141 41.2178325741594 43.1
    vertex -43.6896789486498 41.3913951052299 43
  endloop
endfacet
facet normal -.471396736825897 .881921264348409 0
  outer loop
    vertex -44.7891426772104 40.9359823175228 43
    vertex -44.7891426772104 40.9359823175228 43.1
    vertex -44.2618379352141 41.2178325741594 43
  endloop
endfacet
facet normal -.63439328416372 .773010453362676 0
  outer loop
    vertex -45.2513291491195 40.556675682619 43
    vertex -45.2513291491195 40.556675682619 43.1
    vertex -44.7891426772104 40.9359823175228 43
  endloop
endfacet
facet normal -.773010453362743 .634393284163638 0
  outer loop
    vertex -45.6306357840233 40.0944892107098 43
    vertex -45.6306357840233 40.0944892107098 43.1
    vertex -45.2513291491195 40.556675682619 43
  endloop
endfacet
facet normal -.881921264348342 .471396736826021 0
  outer loop
    vertex -45.91248604066 39.5671844687135 43
    vertex -45.91248604066 39.5671844687135 43.1
    vertex -45.6306357840233 40.0944892107098 43
  endloop
endfacet
facet normal -.956940335732216 .290284677254439 0
  outer loop
    vertex -46.0860485717304 38.9950254821492 43
    vertex -46.0860485717304 38.9950254821492 43.1
    vertex -45.91248604066 39.5671844687135 43
  endloop
endfacet
facet normal -.995184726672189 9.80171403296432E-02 0
  outer loop
    vertex -46.1446534665006 38.4 43
    vertex -46.1446534665006 38.4 43.1
    vertex -46.0860485717304 38.9950254821492 43
  endloop
endfacet
facet normal -.995184726672189 -9.80171403296444E-02 0
  outer loop
    vertex -46.0860485717304 37.8049745178508 43
    vertex -46.0860485717304 37.8049745178508 43.1
    vertex -46.1446534665006 38.4 43
  endloop
endfacet
facet normal -.956940335732217 -.290284677254436 0
  outer loop
    vertex -45.91248604066 37.2328155312865 43
    vertex -45.91248604066 37.2328155312865 43.1
    vertex -46.0860485717304 37.8049745178508 43
  endloop
endfacet
facet normal -.88192126434834 -.471396736826026 0
  outer loop
    vertex -45.6306357840233 36.7055107892902 43
    vertex -45.6306357840233 36.7055107892902 43.1
    vertex -45.91248604066 37.2328155312865 43
  endloop
endfacet
facet normal -.773010453362743 -.634393284163638 0
  outer loop
    vertex -45.2513291491195 36.243324317381 43
    vertex -45.2513291491195 36.243324317381 43.1
    vertex -45.6306357840233 36.7055107892902 43
  endloop
endfacet
facet normal -.634393284163727 -.77301045336267 0
  outer loop
    vertex -44.7891426772104 35.8640176824772 43
    vertex -44.7891426772104 35.8640176824772 43.1
    vertex -45.2513291491195 36.243324317381 43
  endloop
endfacet
facet normal -.471396736825888 -.881921264348414 0
  outer loop
    vertex -44.2618379352141 35.5821674258406 43
    vertex -44.2618379352141 35.5821674258406 43.1
    vertex -44.7891426772104 35.8640176824772 43
  endloop
endfacet
facet normal -.290284677254436 -.956940335732217 0
  outer loop
    vertex -43.6896789486498 35.4086048947702 43
    vertex -43.6896789486498 35.4086048947702 43.1
    vertex -44.2618379352141 35.5821674258406 43
  endloop
endfacet
facet normal -9.80171403296444E-02 -.995184726672189 0
  outer loop
    vertex -43.0946534665006 35.35 43
    vertex -43.0946534665006 35.35 43.1
    vertex -43.6896789486498 35.4086048947702 43
  endloop
endfacet
facet normal 9.80171403296432E-02 -.995184726672189 0
  outer loop
    vertex -42.4996279843514 35.4086048947702 43
    vertex -42.4996279843514 35.4086048947702 43.1
    vertex -43.0946534665006 35.35 43
  endloop
endfacet
facet normal .290284677254393 -.95694033573223 0
  outer loop
    vertex -41.927468997787 35.5821674258406 43
    vertex -41.927468997787 35.5821674258406 43.1
    vertex -42.4996279843514 35.4086048947702 43
  endloop
endfacet
facet normal .471396736825952 -.881921264348379 0
  outer loop
    vertex -41.4001642557908 35.8640176824772 43
    vertex -41.4001642557908 35.8640176824772 43.1
    vertex -41.927468997787 35.5821674258406 43
  endloop
endfacet
facet normal .634393284163645 -.773010453362737 0
  outer loop
    vertex -40.9379777838816 36.243324317381 43
    vertex -40.9379777838816 36.243324317381 43.1
    vertex -41.4001642557908 35.8640176824772 43
  endloop
endfacet
facet normal .773010453362743 -.634393284163638 0
  outer loop
    vertex -40.5586711489778 36.7055107892902 43
    vertex -40.5586711489778 36.7055107892902 43.1
    vertex -40.9379777838816 36.243324317381 43
  endloop
endfacet
facet normal .88192126434834 -.471396736826026 0
  outer loop
    vertex -40.2768208923411 37.2328155312865 43
    vertex -40.2768208923411 37.2328155312865 43.1
    vertex -40.5586711489778 36.7055107892902 43
  endloop
endfacet
facet normal .956940335732217 -.290284677254436 0
  outer loop
    vertex -40.1032583612707 37.8049745178508 43
    vertex -40.1032583612707 37.8049745178508 43.1
    vertex -40.2768208923411 37.2328155312865 43
  endloop
endfacet
facet normal .995184726672205 -9.80171403294796E-02 0
  outer loop
    vertex -40.0446534665006 38.4 43
    vertex -40.0446534665006 38.4 43.1
    vertex -40.1032583612707 37.8049745178508 43
  endloop
endfacet
facet normal 0 0 1
  outer loop
    vertex 55.7172717282413 59.9105532156543 43
    vertex 12 59.9105532156543 43
    vertex 55.7172717282413 -59.9105532156543 43
  endloop
endfacet
facet normal 0 0 1
  outer loop
    vertex 12 59.9105532156543 43
    vertex 11.7694233648388 57.5694693514607 43
    vertex 55.7172717282413 -59.9105532156543 43
  endloop
endfacet
facet normal 0 0 1
  outer loop
    vertex 11.7694233648388 57.5694693514607 43
    vertex 11.0865543901354 55.3183520272732 43
    vertex 55.7172717282413 -59.9105532156543 43
  endloop
endfacet
facet normal 0 0 1
  outer loop
    vertex 11.0865543901354 55.3183520272732 43
    vertex 9.97763534763054 53.243710419419 43
    vertex 55.7172717282413 -59.9105532156543 43
  endloop
endfacet
facet normal 0 0 1
  outer loop
    vertex 9.97763534763054 53.243710419419 43
    vertex 8.48528137423857 51.4252718414157 43
    vertex 55.7172717282413 -59.9105532156543 43
  endloop
endfacet
facet normal 0 0 1
  outer loop
    vertex 8.48528137423857 51.4252718414157 43
    vertex 6.66684279623523 49.9329178680237 43
    vertex 55.7172717282413 -59.9105532156543 43
  endloop
endfacet
facet normal 0 0 1
  outer loop
    vertex 6.66684279623523 49.9329178680237 43
    vertex 4.59220118838108 48.8239988255188 43
    vertex 55.7172717282413 -59.9105532156543 43
  endloop
endfacet
facet normal 0 0 1
  outer loop
    vertex 4.59220118838108 48.8239988255188 43
    vertex 2.34108386419354 48.1411298508155 43
    vertex 55.7172717282413 -59.9105532156543 43
  endloop
endfacet
facet normal 0 0 1
  outer loop
    vertex 2.34108386419354 48.1411298508155 43
    vertex 7.34788079488412E-16 47.9105532156543 43
    vertex 55.7172717282413 -59.9105532156543 43
  endloop
endfacet
facet normal 0 0 1
  outer loop
    vertex 7.34788079488412E-16 47.9105532156543 43
    vertex -55.7172717282413 -59.9105532156543 43
    vertex 55.7172717282413 -59.9105532156543 43
  endloop
endfacet
facet normal 0 0 1
  outer loop
    vertex 7.34788079488412E-16 47.9105532156543 43
    vertex -2.34108386419354 48.1411298508155 43
    vertex -55.7172717282413 -59.9105532156543 43
  endloop
endfacet
facet normal 0 0 1
  outer loop
    vertex -2.34108386419354 48.1411298508155 43
    vertex -4.59220118838108 48.8239988255188 43
    vertex -55.7172717282413 -59.9105532156543 43
  endloop
endfacet
facet normal 0 0 1
  outer loop
    vertex -4.59220118838108 48.8239988255188 43
    vertex -6.66684279623523 49.9329178680237 43
    vertex -55.7172717282413 -59.9105532156543 43
  endloop
endfacet
facet normal 0 0 1
  outer loop
    vertex -6.66684279623523 49.9329178680237 43
    vertex -8.48528137423857 51.4252718414157 43
    vertex -55.7172717282413 -59.9105532156543 43
  endloop
endfacet
facet normal 0 0 1
  outer loop
    vertex -8.48528137423857 51.4252718414157 43
    vertex -9.97763534763054 53.243710419419 43
    vertex -55.7172717282413 -59.9105532156543 43
  endloop
endfacet
facet normal 0 0 1
  outer loop
    vertex -9.97763534763054 53.243710419419 43
    vertex -11.0865543901354 55.3183520272732 43
    vertex -55.7172717282413 -59.9105532156543 43
  endloop
endfacet
facet normal 0 0 1
  outer loop
    vertex -11.0865543901354 55.3183520272732 43
    vertex -11.7694233648388 57.5694693514607 43
    vertex -55.7172717282413 -59.9105532156543 43
  endloop
endfacet
facet normal 0 0 1
  outer loop
    vertex -11.7694233648388 57.5694693514607 43
    vertex -12 59.9105532156543 43
    vertex -55.7172717282413 -59.9105532156543 43
  endloop
endfacet
facet normal 0 0 1
  outer loop
    vertex -55.7172717282413 59.9105532156543 43
    vertex -55.7172717282413 -59.9105532156543 43
    vertex -12 59.9105532156543 43
  endloop
endfacet
facet normal 0 0 -1
  outer loop
    vertex -59.9105532156543 -59.9105532156543 6
    vertex 59.9105532156543 59.9105532156543 6
    vertex 59.9105532156543 -59.9105532156543 6
  endloop
endfacet
facet normal 0 0 -1
  outer loop
    vertex 59.9105532156543 59.9105532156543 6
    vertex -59.9105532156543 -59.9105532156543 6
    vertex -59.9105532156543 59.9105532156543 6
  endloop
endfacet
facet normal 1 0 0
  outer loop
    vertex -12 59.9105532156543 43
    vertex -12 59.9105532156543 39.3
    vertex -12 60.2342612707002 39.3
  endloop
endfacet
facet normal .995184726672199 9.80171403295429E-02 0
  outer loop
    vertex -11.7694233648388 57.5694693514607 43
    vertex -11.7694233648388 57.5694693514607 39.3
    vertex -12 59.9105532156543 39.3
  endloop
endfacet
facet normal .956940335732198 .290284677254497 0
  outer loop
    vertex -11.0865543901354 55.3183520272732 43
    vertex -11.0865543901354 55.3183520272732 39.3
    vertex -11.7694233648388 57.5694693514607 39.3
  endloop
endfacet
facet normal .881921264348366 .471396736825976 0
  outer loop
    vertex -9.97763534763054 53.243710419419 43
    vertex -9.97763534763054 53.243710419419 39.3
    vertex -11.0865543901354 55.3183520272732 39.3
  endloop
endfacet
facet normal .77301045336273 .634393284163654 0
  outer loop
    vertex -8.48528137423857 51.4252718414157 43
    vertex -8.48528137423857 51.4252718414157 39.3
    vertex -9.97763534763054 53.243710419419 39.3
  endloop
endfacet
facet normal .634393284163653 .773010453362731 0
  outer loop
    vertex -6.66684279623523 49.9329178680237 43
    vertex -6.66684279623523 49.9329178680237 39.3
    vertex -8.48528137423857 51.4252718414157 39.3
  endloop
endfacet
facet normal .471396736825999 .881921264348354 0
  outer loop
    vertex -4.59220118838108 48.8239988255188 43
    vertex -4.59220118838108 48.8239988255188 39.3
    vertex -6.66684279623523 49.9329178680237 39.3
  endloop
endfacet
facet normal .290284677254451 .956940335732212 0
  outer loop
    vertex -2.34108386419354 48.1411298508155 43
    vertex -2.34108386419354 48.1411298508155 39.3
    vertex -4.59220118838108 48.8239988255188 39.3
  endloop
endfacet
facet normal 9.80171403295457E-02 .995184726672198 0
  outer loop
    vertex 7.34788079488412E-16 47.9105532156543 43
    vertex 7.34788079488412E-16 47.9105532156543 39.3
    vertex -2.34108386419354 48.1411298508155 39.3
  endloop
endfacet
facet normal -9.80171403295457E-02 .995184726672198 0
  outer loop
    vertex 2.34108386419354 48.1411298508155 43
    vertex 2.34108386419354 48.1411298508155 39.3
    vertex 7.34788079488412E-16 47.9105532156543 39.3
  endloop
endfacet
facet normal -.290284677254451 .956940335732212 0
  outer loop
    vertex 4.59220118838108 48.8239988255188 43
    vertex 4.59220118838108 48.8239988255188 39.3
    vertex 2.34108386419354 48.1411298508155 39.3
  endloop
endfacet
facet normal -.471396736825999 .881921264348354 0
  outer loop
    vertex 6.66684279623523 49.9329178680237 43
    vertex 6.66684279623523 49.9329178680237 39.3
    vertex 4.59220118838108 48.8239988255188 39.3
  endloop
endfacet
facet normal -.634393284163653 .773010453362731 0
  outer loop
    vertex 8.48528137423857 51.4252718414157 43
    vertex 8.48528137423857 51.4252718414157 39.3
    vertex 6.66684279623523 49.9329178680237 39.3
  endloop
endfacet
facet normal -.77301045336273 .634393284163654 0
  outer loop
    vertex 9.97763534763054 53.243710419419 43
    vertex 9.97763534763054 53.243710419419 39.3
    vertex 8.48528137423857 51.4252718414157 39.3
  endloop
endfacet
facet normal -.881921264348366 .471396736825976 0
  outer loop
    vertex 11.0865543901354 55.3183520272732 43
    vertex 11.0865543901354 55.3183520272732 39.3
    vertex 9.97763534763054 53.243710419419 39.3
  endloop
endfacet
facet normal -.956940335732198 .290284677254497 0
  outer loop
    vertex 11.7694233648388 57.5694693514607 43
    vertex 11.7694233648388 57.5694693514607 39.3
    vertex 11.0865543901354 55.3183520272732 39.3
  endloop
endfacet
facet normal -.995184726672199 9.80171403295429E-02 0
  outer loop
    vertex 12 59.9105532156543 43
    vertex 12 59.9105532156543 39.3
    vertex 11.7694233648388 57.5694693514607 39.3
  endloop
endfacet
facet normal .995184726672199 9.80171403295429E-02 0
  outer loop
    vertex -11.7694233648388 57.5694693514607 43
    vertex -12 59.9105532156543 39.3
    vertex -12 59.9105532156543 43
  endloop
endfacet
facet normal .956940335732198 .290284677254497 0
  outer loop
    vertex -11.0865543901354 55.3183520272732 43
    vertex -11.7694233648388 57.5694693514607 39.3
    vertex -11.7694233648388 57.5694693514607 43
  endloop
endfacet
facet normal .881921264348366 .471396736825976 0
  outer loop
    vertex -9.97763534763054 53.243710419419 43
    vertex -11.0865543901354 55.3183520272732 39.3
    vertex -11.0865543901354 55.3183520272732 43
  endloop
endfacet
facet normal .77301045336273 .634393284163654 0
  outer loop
    vertex -8.48528137423857 51.4252718414157 43
    vertex -9.97763534763054 53.243710419419 39.3
    vertex -9.97763534763054 53.243710419419 43
  endloop
endfacet
facet normal .634393284163653 .773010453362731 0
  outer loop
    vertex -6.66684279623523 49.9329178680237 43
    vertex -8.48528137423857 51.4252718414157 39.3
    vertex -8.48528137423857 51.4252718414157 43
  endloop
endfacet
facet normal .471396736825999 .881921264348354 0
  outer loop
    vertex -4.59220118838108 48.8239988255188 43
    vertex -6.66684279623523 49.9329178680237 39.3
    vertex -6.66684279623523 49.9329178680237 43
  endloop
endfacet
facet normal .290284677254451 .956940335732212 0
  outer loop
    vertex -2.34108386419354 48.1411298508155 43
    vertex -4.59220118838108 48.8239988255188 39.3
    vertex -4.59220118838108 48.8239988255188 43
  endloop
endfacet
facet normal 9.80171403295457E-02 .995184726672198 0
  outer loop
    vertex 7.34788079488412E-16 47.9105532156543 43
    vertex -2.34108386419354 48.1411298508155 39.3
    vertex -2.34108386419354 48.1411298508155 43
  endloop
endfacet
facet normal -9.80171403295457E-02 .995184726672198 0
  outer loop
    vertex 2.34108386419354 48.1411298508155 43
    vertex 7.34788079488412E-16 47.9105532156543 39.3
    vertex 7.34788079488412E-16 47.9105532156543 43
  endloop
endfacet
facet normal -.290284677254451 .956940335732212 0
  outer loop
    vertex 4.59220118838108 48.8239988255188 43
    vertex 2.34108386419354 48.1411298508155 39.3
    vertex 2.34108386419354 48.1411298508155 43
  endloop
endfacet
facet normal -.471396736825999 .881921264348354 0
  outer loop
    vertex 6.66684279623523 49.9329178680237 43
    vertex 4.59220118838108 48.8239988255188 39.3
    vertex 4.59220118838108 48.8239988255188 43
  endloop
endfacet
facet normal -.634393284163653 .773010453362731 0
  outer loop
    vertex 8.48528137423857 51.4252718414157 43
    vertex 6.66684279623523 49.9329178680237 39.3
    vertex 6.66684279623523 49.9329178680237 43
  endloop
endfacet
facet normal -.77301045336273 .634393284163654 0
  outer loop
    vertex 9.97763534763054 53.243710419419 43
    vertex 8.48528137423857 51.4252718414157 39.3
    vertex 8.48528137423857 51.4252718414157 43
  endloop
endfacet
facet normal -.881921264348366 .471396736825976 0
  outer loop
    vertex 11.0865543901354 55.3183520272732 43
    vertex 9.97763534763054 53.243710419419 39.3
    vertex 9.97763534763054 53.243710419419 43
  endloop
endfacet
facet normal -.956940335732198 .290284677254497 0
  outer loop
    vertex 11.7694233648388 57.5694693514607 43
    vertex 11.0865543901354 55.3183520272732 39.3
    vertex 11.0865543901354 55.3183520272732 43
  endloop
endfacet
facet normal -.995184726672199 9.80171403295429E-02 0
  outer loop
    vertex 12 59.9105532156543 43
    vertex 11.7694233648388 57.5694693514607 39.3
    vertex 11.7694233648388 57.5694693514607 43
  endloop
endfacet
facet normal -1 0 0
  outer loop
    vertex 12 59.9105532156543 43
    vertex 12 60.2342612707002 39.3
    vertex 12 59.9105532156543 39.3
  endloop
endfacet
facet normal 0 0 1
  outer loop
    vertex -12 60.2342612707002 39.3
    vertex -12 59.9105532156543 39.3
    vertex 0 60.2342612707002 39.3
  endloop
endfacet
facet normal 0 0 1
  outer loop
    vertex -12 59.9105532156543 39.3
    vertex -11.7694233648388 57.5694693514607 39.3
    vertex 0 60.2342612707002 39.3
  endloop
endfacet
facet normal 0 0 1
  outer loop
    vertex -11.7694233648388 57.5694693514607 39.3
    vertex -11.0865543901354 55.3183520272732 39.3
    vertex 0 60.2342612707002 39.3
  endloop
endfacet
facet normal 0 0 1
  outer loop
    vertex -11.0865543901354 55.3183520272732 39.3
    vertex -9.97763534763054 53.243710419419 39.3
    vertex 0 60.2342612707002 39.3
  endloop
endfacet
facet normal 0 0 1
  outer loop
    vertex -9.97763534763054 53.243710419419 39.3
    vertex -8.48528137423857 51.4252718414157 39.3
    vertex 0 60.2342612707002 39.3
  endloop
endfacet
facet normal 0 0 1
  outer loop
    vertex -8.48528137423857 51.4252718414157 39.3
    vertex -6.66684279623523 49.9329178680237 39.3
    vertex 0 60.2342612707002 39.3
  endloop
endfacet
facet normal 0 0 1
  outer loop
    vertex -6.66684279623523 49.9329178680237 39.3
    vertex -4.59220118838108 48.8239988255188 39.3
    vertex 0 60.2342612707002 39.3
  endloop
endfacet
facet normal 0 0 1
  outer loop
    vertex -4.59220118838108 48.8239988255188 39.3
    vertex -2.34108386419354 48.1411298508155 39.3
    vertex 0 60.2342612707002 39.3
  endloop
endfacet
facet normal 0 0 1
  outer loop
    vertex -2.34108386419354 48.1411298508155 39.3
    vertex 7.34788079488412E-16 47.9105532156543 39.3
    vertex 0 60.2342612707002 39.3
  endloop
endfacet
facet normal 0 0 1
  outer loop
    vertex 7.34788079488412E-16 47.9105532156543 39.3
    vertex 2.34108386419354 48.1411298508155 39.3
    vertex 0 60.2342612707002 39.3
  endloop
endfacet
facet normal 0 0 1
  outer loop
    vertex 2.34108386419354 48.1411298508155 39.3
    vertex 4.59220118838108 48.8239988255188 39.3
    vertex 0 60.2342612707002 39.3
  endloop
endfacet
facet normal 0 0 1
  outer loop
    vertex 4.59220118838108 48.8239988255188 39.3
    vertex 6.66684279623523 49.9329178680237 39.3
    vertex 0 60.2342612707002 39.3
  endloop
endfacet
facet normal 0 0 1
  outer loop
    vertex 6.66684279623523 49.9329178680237 39.3
    vertex 8.48528137423857 51.4252718414157 39.3
    vertex 0 60.2342612707002 39.3
  endloop
endfacet
facet normal 0 0 1
  outer loop
    vertex 8.48528137423857 51.4252718414157 39.3
    vertex 9.97763534763054 53.243710419419 39.3
    vertex 0 60.2342612707002 39.3
  endloop
endfacet
facet normal 0 0 1
  outer loop
    vertex 9.97763534763054 53.243710419419 39.3
    vertex 11.0865543901354 55.3183520272732 39.3
    vertex 0 60.2342612707002 39.3
  endloop
endfacet
facet normal 0 0 1
  outer loop
    vertex 11.0865543901354 55.3183520272732 39.3
    vertex 11.7694233648388 57.5694693514607 39.3
    vertex 0 60.2342612707002 39.3
  endloop
endfacet
facet normal 0 0 1
  outer loop
    vertex 11.7694233648388 57.5694693514607 39.3
    vertex 12 59.9105532156543 39.3
    vertex 0 60.2342612707002 39.3
  endloop
endfacet
facet normal 0 0 1
  outer loop
    vertex 12 59.9105532156543 39.3
    vertex 12 60.2342612707002 39.3
    vertex 0 60.2342612707002 39.3
  endloop
endfacet
facet normal .921118787038768 0 .389281620635022
  outer loop
    vertex 55.7172717282413 59.9105532156543 43
    vertex 61 -61 30.5
    vertex 61 61 30.5
  endloop
endfacet
facet normal 0 -.996223440096615 8.68265938642452E-02
  outer loop
    vertex 55.7172717282413 -59.9105532156543 43
    vertex -61 -61 30.5
    vertex 61 -61 30.5
  endloop
endfacet
facet normal -.921118787038768 0 .389281620635022
  outer loop
    vertex -55.7172717282413 -59.9105532156543 43
    vertex -61 61 30.5
    vertex -61 -61 30.5
  endloop
endfacet
facet normal 1 0 0
  outer loop
    vertex 61 61 30.5
    vertex 61 -61 18.5
    vertex 61 61 18.5
  endloop
endfacet
facet normal 0 -1 0
  outer loop
    vertex 61 -61 30.5
    vertex -61 -61 18.5
    vertex 61 -61 18.5
  endloop
endfacet
facet normal -1 0 0
  outer loop
    vertex -61 -61 30.5
    vertex -61 61 18.5
    vertex -61 -61 18.5
  endloop
endfacet
facet normal .996223440096615 0 -8.68265938642452E-02
  outer loop
    vertex 61 61 18.5
    vertex 59.9105532156543 -59.9105532156543 6
    vertex 59.9105532156543 59.9105532156543 6
  endloop
endfacet
facet normal 0 -.996223440096615 -8.68265938642452E-02
  outer loop
    vertex 61 -61 18.5
    vertex -59.9105532156543 -59.9105532156543 6
    vertex 59.9105532156543 -59.9105532156543 6
  endloop
endfacet
facet normal -.996223440096615 0 -8.68265938642452E-02
  outer loop
    vertex -61 -61 18.5
    vertex -59.9105532156543 59.9105532156543 6
    vertex -59.9105532156543 -59.9105532156543 6
  endloop
endfacet
facet normal .921118787038768 0 .389281620635022
  outer loop
    vertex 55.7172717282413 -59.9105532156543 43
    vertex 61 -61 30.5
    vertex 55.7172717282413 59.9105532156543 43
  endloop
endfacet
facet normal 0 -.996223440096615 8.68265938642452E-02
  outer loop
    vertex -55.7172717282413 -59.9105532156543 43
    vertex -61 -61 30.5
    vertex 55.7172717282413 -59.9105532156543 43
  endloop
endfacet
facet normal -.921118787038768 0 .389281620635022
  outer loop
    vertex -55.7172717282413 59.9105532156543 43
    vertex -61 61 30.5
    vertex -55.7172717282413 -59.9105532156543 43
  endloop
endfacet
facet normal 1 0 0
  outer loop
    vertex 61 -61 30.5
    vertex 61 -61 18.5
    vertex 61 61 30.5
  endloop
endfacet
facet normal 0 -1 0
  outer loop
    vertex -61 -61 30.5
    vertex -61 -61 18.5
    vertex 61 -61 30.5
  endloop
endfacet
facet normal -1 0 0
  outer loop
    vertex -61 61 30.5
    vertex -61 61 18.5
    vertex -61 -61 30.5
  endloop
endfacet
facet normal .996223440096615 0 -8.68265938642452E-02
  outer loop
    vertex 61 -61 18.5
    vertex 59.9105532156543 -59.9105532156543 6
    vertex 61 61 18.5
  endloop
endfacet
facet normal 0 -.996223440096615 -8.68265938642452E-02
  outer loop
    vertex -61 -61 18.5
    vertex -59.9105532156543 -59.9105532156543 6
    vertex 61 -61 18.5
  endloop
endfacet
facet normal -.996223440096615 0 -8.68265938642452E-02
  outer loop
    vertex -61 61 18.5
    vertex -59.9105532156543 59.9105532156543 6
    vertex -61 -61 18.5
  endloop
endfacet
facet normal 0 .996223440096615 -8.68265938642452E-02
  outer loop
    vertex 61 61 18.5
    vertex 59.9105532156543 59.9105532156543 6
    vertex -61 61 18.5
  endloop
endfacet
facet normal 0 .996223440096615 -8.68265938642452E-02
  outer loop
    vertex 59.9105532156543 59.9105532156543 6
    vertex -59.9105532156543 59.9105532156543 6
    vertex -61 61 18.5
  endloop
endfacet
facet normal 0 1 0
  outer loop
    vertex 61 61 30.5
    vertex 61 61 18.5
    vertex -61 61 30.5
  endloop
endfacet
facet normal 0 1 0
  outer loop
    vertex -61 61 30.5
    vertex 61 61 18.5
    vertex -61 61 18.5
  endloop
endfacet
facet normal 0 .996223440096615 8.68265938642452E-02
  outer loop
    vertex 61 61 30.5
    vertex 12 59.9105532156543 43
    vertex 55.7172717282413 59.9105532156543 43
  endloop
endfacet
facet normal 8.46055900517503E-05 .996194694526312 8.71557424357176E-02
  outer loop
    vertex 12 59.9105532156543 43
    vertex 61 61 30.5
    vertex 12 60.2342612707002 39.3
  endloop
endfacet
facet normal 0 .996235492820779 8.66881932222661E-02
  outer loop
    vertex 61 61 30.5
    vertex -12 60.2342612707002 39.3
    vertex 12 60.2342612707002 39.3
  endloop
endfacet
facet normal 0 .996235492820778 8.66881932222661E-02
  outer loop
    vertex 61 61 30.5
    vertex -61 61 30.5
    vertex -12 60.2342612707002 39.3
  endloop
endfacet
facet normal -2.71008760698478E-05 .996222448968326 8.68379608068593E-02
  outer loop
    vertex -55.7172717282413 59.9105532156543 43
    vertex -12 60.2342612707002 39.3
    vertex -61 61 30.5
  endloop
endfacet
facet normal 0 .996194698091746 8.71557427476527E-02
  outer loop
    vertex -55.7172717282413 59.9105532156543 43
    vertex -12 59.9105532156543 43
    vertex -12 60.2342612707002 39.3
  endloop
endfacet
facet normal -1 0 0
  outer loop
    vertex -90.22 44.72 10
    vertex -90.22 44.72 0
    vertex -90.22 32.08 0
  endloop
endfacet
facet normal -1 0 0
  outer loop
    vertex -90.22 44.72 10
    vertex -90.22 32.08 0
    vertex -90.22 32.08 10
  endloop
endfacet
facet normal 1 0 0
  outer loop
    vertex -61 32.08 29.5
    vertex -61 32.08 19.5
    vertex -61 44.72 19.5
  endloop
endfacet
facet normal 1 0 0
  outer loop
    vertex -61 32.08 29.5
    vertex -61 44.72 19.5
    vertex -61 44.72 29.5
  endloop
endfacet
facet normal 0 1 0
  outer loop
    vertex -61 44.72 19.5
    vertex -65.5474515436737 44.72 19.5
    vertex -70.5474515436737 44.72 29.5
  endloop
endfacet
facet normal 0 1 0
  outer loop
    vertex -65.5474515436737 44.72 19.5
    vertex -78.124 44.72 0
    vertex -83.124 44.72 10
  endloop
endfacet
facet normal 0 1 0
  outer loop
    vertex -78.124 44.72 0
    vertex -90.22 44.72 0
    vertex -90.22 44.72 10
  endloop
endfacet
facet normal 0 1 0
  outer loop
    vertex -61 44.72 19.5
    vertex -70.5474515436737 44.72 29.5
    vertex -61 44.72 29.5
  endloop
endfacet
facet normal 0 1 0
  outer loop
    vertex -65.5474515436737 44.72 19.5
    vertex -83.124 44.72 10
    vertex -70.5474515436737 44.72 29.5
  endloop
endfacet
facet normal 0 1 0
  outer loop
    vertex -78.124 44.72 0
    vertex -90.22 44.72 10
    vertex -83.124 44.72 10
  endloop
endfacet
facet normal 0 -1 0
  outer loop
    vertex -61 32.08 19.5
    vertex -70.5474515436737 32.08 29.5
    vertex -65.5474515436737 32.08 19.5
  endloop
endfacet
facet normal 0 -1 0
  outer loop
    vertex -65.5474515436737 32.08 19.5
    vertex -83.124 32.08 10
    vertex -78.124 32.08 0
  endloop
endfacet
facet normal 0 -1 0
  outer loop
    vertex -78.124 32.08 0
    vertex -90.22 32.08 10
    vertex -90.22 32.08 0
  endloop
endfacet
facet normal 0 -1 0
  outer loop
    vertex -61 32.08 19.5
    vertex -61 32.08 29.5
    vertex -70.5474515436737 32.08 29.5
  endloop
endfacet
facet normal 0 -1 0
  outer loop
    vertex -65.5474515436737 32.08 19.5
    vertex -70.5474515436737 32.08 29.5
    vertex -83.124 32.08 10
  endloop
endfacet
facet normal 0 -1 0
  outer loop
    vertex -78.124 32.08 0
    vertex -83.124 32.08 10
    vertex -90.22 32.08 10
  endloop
endfacet
facet normal 0 0 1
  outer loop
    vertex -61 44.72 29.5
    vertex -70.5474515436737 44.72 29.5
    vertex -70.5474515436737 32.08 29.5
  endloop
endfacet
facet normal -.840377067081416 0 .542002200294092
  outer loop
    vertex -70.5474515436737 44.72 29.5
    vertex -83.124 44.72 10
    vertex -83.124 32.08 10
  endloop
endfacet
facet normal 0 0 1
  outer loop
    vertex -83.124 44.72 10
    vertex -90.22 44.72 10
    vertex -90.22 32.08 10
  endloop
endfacet
facet normal 0 0 1
  outer loop
    vertex -61 44.72 29.5
    vertex -70.5474515436737 32.08 29.5
    vertex -61 32.08 29.5
  endloop
endfacet
facet normal -.840377067081416 0 .542002200294092
  outer loop
    vertex -70.5474515436737 44.72 29.5
    vertex -83.124 32.08 10
    vertex -70.5474515436737 32.08 29.5
  endloop
endfacet
facet normal 0 0 1
  outer loop
    vertex -83.124 44.72 10
    vertex -90.22 32.08 10
    vertex -83.124 32.08 10
  endloop
endfacet
facet normal 0 0 -1
  outer loop
    vertex -61 44.72 19.5
    vertex -65.5474515436737 32.08 19.5
    vertex -65.5474515436737 44.72 19.5
  endloop
endfacet
facet normal .840377067081416 0 -.542002200294092
  outer loop
    vertex -65.5474515436737 44.72 19.5
    vertex -78.124 32.08 0
    vertex -78.124 44.72 0
  endloop
endfacet
facet normal 0 0 -1
  outer loop
    vertex -78.124 44.72 0
    vertex -90.22 32.08 0
    vertex -90.22 44.72 0
  endloop
endfacet
facet normal 0 0 -1
  outer loop
    vertex -61 44.72 19.5
    vertex -61 32.08 19.5
    vertex -65.5474515436737 32.08 19.5
  endloop
endfacet
facet normal .840377067081416 0 -.542002200294092
  outer loop
    vertex -65.5474515436737 44.72 19.5
    vertex -65.5474515436737 32.08 19.5
    vertex -78.124 32.08 0
  endloop
endfacet
facet normal 0 0 -1
  outer loop
    vertex -78.124 44.72 0
    vertex -78.124 32.08 0
    vertex -90.22 32.08 0
  endloop
endfacet
facet normal -1 0 0
  outer loop
    vertex -90.22 19.12 10
    vertex -90.22 19.12 0
    vertex -90.22 6.48 0
  endloop
endfacet
facet normal -1 0 0
  outer loop
    vertex -90.22 19.12 10
    vertex -90.22 6.48 0
    vertex -90.22 6.48 10
  endloop
endfacet
facet normal 1 0 0
  outer loop
    vertex -61 6.48000000000001 29.5
    vertex -61 6.48000000000001 19.5
    vertex -61 19.12 19.5
  endloop
endfacet
facet normal 1 0 0
  outer loop
    vertex -61 6.48000000000001 29.5
    vertex -61 19.12 19.5
    vertex -61 19.12 29.5
  endloop
endfacet
facet normal 0 1 0
  outer loop
    vertex -61 19.12 19.5
    vertex -65.5474515436737 19.12 19.5
    vertex -70.5474515436737 19.12 29.5
  endloop
endfacet
facet normal 0 1 0
  outer loop
    vertex -65.5474515436737 19.12 19.5
    vertex -78.124 19.12 0
    vertex -83.124 19.12 10
  endloop
endfacet
facet normal 0 1 0
  outer loop
    vertex -78.124 19.12 0
    vertex -90.22 19.12 0
    vertex -90.22 19.12 10
  endloop
endfacet
facet normal 0 1 0
  outer loop
    vertex -61 19.12 19.5
    vertex -70.5474515436737 19.12 29.5
    vertex -61 19.12 29.5
  endloop
endfacet
facet normal 0 1 0
  outer loop
    vertex -65.5474515436737 19.12 19.5
    vertex -83.124 19.12 10
    vertex -70.5474515436737 19.12 29.5
  endloop
endfacet
facet normal 0 1 0
  outer loop
    vertex -78.124 19.12 0
    vertex -90.22 19.12 10
    vertex -83.124 19.12 10
  endloop
endfacet
facet normal 0 -1 -9.76996261670138E-16
  outer loop
    vertex -61 6.48000000000001 19.5
    vertex -70.5474515436737 6.48 29.5
    vertex -65.5474515436737 6.48000000000001 19.5
  endloop
endfacet
facet normal 4.37593953933933E-16 -1 2.18796976966967E-16
  outer loop
    vertex -65.5474515436737 6.48000000000001 19.5
    vertex -83.124 6.48 10
    vertex -78.124 6.48 0
  endloop
endfacet
facet normal 0 -1 0
  outer loop
    vertex -78.124 6.48 0
    vertex -90.22 6.48 10
    vertex -90.22 6.48 0
  endloop
endfacet
facet normal 1.02330580804834E-15 -1 0
  outer loop
    vertex -61 6.48000000000001 19.5
    vertex -61 6.48000000000001 29.5
    vertex -70.5474515436737 6.48 29.5
  endloop
endfacet
facet normal 8.5330821017117E-16 -1 -5.50342156584553E-16
  outer loop
    vertex -65.5474515436737 6.48000000000001 19.5
    vertex -70.5474515436737 6.48 29.5
    vertex -83.124 6.48 10
  endloop
endfacet
facet normal 0 -1 0
  outer loop
    vertex -78.124 6.48 0
    vertex -83.124 6.48 10
    vertex -90.22 6.48 10
  endloop
endfacet
facet normal 0 0 1
  outer loop
    vertex -61 19.12 29.5
    vertex -70.5474515436737 19.12 29.5
    vertex -70.5474515436737 6.48 29.5
  endloop
endfacet
facet normal -.840377067081416 0 .542002200294092
  outer loop
    vertex -70.5474515436737 19.12 29.5
    vertex -83.124 19.12 10
    vertex -83.124 6.48 10
  endloop
endfacet
facet normal 0 0 1
  outer loop
    vertex -83.124 19.12 10
    vertex -90.22 19.12 10
    vertex -90.22 6.48 10
  endloop
endfacet
facet normal 0 0 1
  outer loop
    vertex -61 19.12 29.5
    vertex -70.5474515436737 6.48 29.5
    vertex -61 6.48000000000001 29.5
  endloop
endfacet
facet normal -.840377067081416 0 .542002200294092
  outer loop
    vertex -70.5474515436737 19.12 29.5
    vertex -83.124 6.48 10
    vertex -70.5474515436737 6.48 29.5
  endloop
endfacet
facet normal 0 0 1
  outer loop
    vertex -83.124 19.12 10
    vertex -90.22 6.48 10
    vertex -83.124 6.48 10
  endloop
endfacet
facet normal 0 0 -1
  outer loop
    vertex -61 19.12 19.5
    vertex -65.5474515436737 6.48000000000001 19.5
    vertex -65.5474515436737 19.12 19.5
  endloop
endfacet
facet normal .840377067081416 0 -.542002200294092
  outer loop
    vertex -65.5474515436737 19.12 19.5
    vertex -78.124 6.48 0
    vertex -78.124 19.12 0
  endloop
endfacet
facet normal 0 0 -1
  outer loop
    vertex -78.124 19.12 0
    vertex -90.22 6.48 0
    vertex -90.22 19.12 0
  endloop
endfacet
facet normal 0 0 -1
  outer loop
    vertex -61 19.12 19.5
    vertex -61 6.48000000000001 19.5
    vertex -65.5474515436737 6.48000000000001 19.5
  endloop
endfacet
facet normal .840377067081416 0 -.542002200294092
  outer loop
    vertex -65.5474515436737 19.12 19.5
    vertex -65.5474515436737 6.48000000000001 19.5
    vertex -78.124 6.48 0
  endloop
endfacet
facet normal 0 0 -1
  outer loop
    vertex -78.124 19.12 0
    vertex -78.124 6.48 0
    vertex -90.22 6.48 0
  endloop
endfacet
facet normal -1 0 0
  outer loop
    vertex -90.22 -6.48 10
    vertex -90.22 -6.48 0
    vertex -90.22 -19.12 0
  endloop
endfacet
facet normal -1 0 0
  outer loop
    vertex -90.22 -6.48 10
    vertex -90.22 -19.12 0
    vertex -90.22 -19.12 10
  endloop
endfacet
facet normal 1 0 0
  outer loop
    vertex -61 -19.12 29.5
    vertex -61 -19.12 19.5
    vertex -61 -6.48000000000002 19.5
  endloop
endfacet
facet normal 1 0 0
  outer loop
    vertex -61 -19.12 29.5
    vertex -61 -6.48000000000002 19.5
    vertex -61 -6.48000000000002 29.5
  endloop
endfacet
facet normal 0 1 -1.95399252334028E-15
  outer loop
    vertex -61 -6.48000000000002 19.5
    vertex -65.5474515436737 -6.48000000000002 19.5
    vertex -70.5474515436737 -6.48 29.5
  endloop
endfacet
facet normal 8.75187907867866E-16 1 4.37593953933933E-16
  outer loop
    vertex -65.5474515436737 -6.48000000000002 19.5
    vertex -78.124 -6.48 0
    vertex -83.124 -6.48 10
  endloop
endfacet
facet normal 0 1 0
  outer loop
    vertex -78.124 -6.48 0
    vertex -90.22 -6.48 0
    vertex -90.22 -6.48 10
  endloop
endfacet
facet normal 2.04661161609668E-15 1 0
  outer loop
    vertex -61 -6.48000000000002 19.5
    vertex -70.5474515436737 -6.48 29.5
    vertex -61 -6.48000000000002 29.5
  endloop
endfacet
facet normal 1.70661642034234E-15 1 -1.10068431316911E-15
  outer loop
    vertex -65.5474515436737 -6.48000000000002 19.5
    vertex -83.124 -6.48 10
    vertex -70.5474515436737 -6.48 29.5
  endloop
endfacet
facet normal 0 1 0
  outer loop
    vertex -78.124 -6.48 0
    vertex -90.22 -6.48 10
    vertex -83.124 -6.48 10
  endloop
endfacet
facet normal 0 -1 0
  outer loop
    vertex -61 -19.12 19.5
    vertex -70.5474515436737 -19.12 29.5
    vertex -65.5474515436737 -19.12 19.5
  endloop
endfacet
facet normal 0 -1 0
  outer loop
    vertex -65.5474515436737 -19.12 19.5
    vertex -83.124 -19.12 10
    vertex -78.124 -19.12 0
  endloop
endfacet
facet normal 0 -1 0
  outer loop
    vertex -78.124 -19.12 0
    vertex -90.22 -19.12 10
    vertex -90.22 -19.12 0
  endloop
endfacet
facet normal 0 -1 0
  outer loop
    vertex -61 -19.12 19.5
    vertex -61 -19.12 29.5
    vertex -70.5474515436737 -19.12 29.5
  endloop
endfacet
facet normal 0 -1 0
  outer loop
    vertex -65.5474515436737 -19.12 19.5
    vertex -70.5474515436737 -19.12 29.5
    vertex -83.124 -19.12 10
  endloop
endfacet
facet normal 0 -1 0
  outer loop
    vertex -78.124 -19.12 0
    vertex -83.124 -19.12 10
    vertex -90.22 -19.12 10
  endloop
endfacet
facet normal 0 0 1
  outer loop
    vertex -61 -6.48000000000002 29.5
    vertex -70.5474515436737 -6.48 29.5
    vertex -70.5474515436737 -19.12 29.5
  endloop
endfacet
facet normal -.840377067081416 0 .542002200294092
  outer loop
    vertex -70.5474515436737 -6.48 29.5
    vertex -83.124 -6.48 10
    vertex -83.124 -19.12 10
  endloop
endfacet
facet normal 0 0 1
  outer loop
    vertex -83.124 -6.48 10
    vertex -90.22 -6.48 10
    vertex -90.22 -19.12 10
  endloop
endfacet
facet normal 0 0 1
  outer loop
    vertex -61 -6.48000000000002 29.5
    vertex -70.5474515436737 -19.12 29.5
    vertex -61 -19.12 29.5
  endloop
endfacet
facet normal -.840377067081416 0 .542002200294092
  outer loop
    vertex -70.5474515436737 -6.48 29.5
    vertex -83.124 -19.12 10
    vertex -70.5474515436737 -19.12 29.5
  endloop
endfacet
facet normal 0 0 1
  outer loop
    vertex -83.124 -6.48 10
    vertex -90.22 -19.12 10
    vertex -83.124 -19.12 10
  endloop
endfacet
facet normal 0 0 -1
  outer loop
    vertex -61 -6.48000000000002 19.5
    vertex -65.5474515436737 -19.12 19.5
    vertex -65.5474515436737 -6.48000000000002 19.5
  endloop
endfacet
facet normal .840377067081416 0 -.542002200294092
  outer loop
    vertex -65.5474515436737 -6.48000000000002 19.5
    vertex -78.124 -19.12 0
    vertex -78.124 -6.48 0
  endloop
endfacet
facet normal 0 0 -1
  outer loop
    vertex -78.124 -6.48 0
    vertex -90.22 -19.12 0
    vertex -90.22 -6.48 0
  endloop
endfacet
facet normal 0 0 -1
  outer loop
    vertex -61 -6.48000000000002 19.5
    vertex -61 -19.12 19.5
    vertex -65.5474515436737 -19.12 19.5
  endloop
endfacet
facet normal .840377067081416 0 -.542002200294092
  outer loop
    vertex -65.5474515436737 -6.48000000000002 19.5
    vertex -65.5474515436737 -19.12 19.5
    vertex -78.124 -19.12 0
  endloop
endfacet
facet normal 0 0 -1
  outer loop
    vertex -78.124 -6.48 0
    vertex -78.124 -19.12 0
    vertex -90.22 -19.12 0
  endloop
endfacet
facet normal -1 0 0
  outer loop
    vertex -90.22 -32.08 10
    vertex -90.22 -32.08 0
    vertex -90.22 -44.72 0
  endloop
endfacet
facet normal -1 0 0
  outer loop
    vertex -90.22 -32.08 10
    vertex -90.22 -44.72 0
    vertex -90.22 -44.72 10
  endloop
endfacet
facet normal 1 0 0
  outer loop
    vertex -61 -44.72 29.5
    vertex -61 -44.72 19.5
    vertex -61 -32.08 19.5
  endloop
endfacet
facet normal 1 0 0
  outer loop
    vertex -61 -44.72 29.5
    vertex -61 -32.08 19.5
    vertex -61 -32.08 29.5
  endloop
endfacet
facet normal 0 1 0
  outer loop
    vertex -61 -32.08 19.5
    vertex -65.5474515436737 -32.08 19.5
    vertex -70.5474515436737 -32.08 29.5
  endloop
endfacet
facet normal 0 1 0
  outer loop
    vertex -65.5474515436737 -32.08 19.5
    vertex -78.124 -32.08 0
    vertex -83.124 -32.08 10
  endloop
endfacet
facet normal 0 1 0
  outer loop
    vertex -78.124 -32.08 0
    vertex -90.22 -32.08 0
    vertex -90.22 -32.08 10
  endloop
endfacet
facet normal 0 1 0
  outer loop
    vertex -61 -32.08 19.5
    vertex -70.5474515436737 -32.08 29.5
    vertex -61 -32.08 29.5
  endloop
endfacet
facet normal 0 1 0
  outer loop
    vertex -65.5474515436737 -32.08 19.5
    vertex -83.124 -32.08 10
    vertex -70.5474515436737 -32.08 29.5
  endloop
endfacet
facet normal 0 1 0
  outer loop
    vertex -78.124 -32.08 0
    vertex -90.22 -32.08 10
    vertex -83.124 -32.08 10
  endloop
endfacet
facet normal 0 -1 0
  outer loop
    vertex -61 -44.72 19.5
    vertex -70.5474515436737 -44.72 29.5
    vertex -65.5474515436737 -44.72 19.5
  endloop
endfacet
facet normal 0 -1 0
  outer loop
    vertex -65.5474515436737 -44.72 19.5
    vertex -83.124 -44.72 10
    vertex -78.124 -44.72 0
  endloop
endfacet
facet normal 0 -1 0
  outer loop
    vertex -78.124 -44.72 0
    vertex -90.22 -44.72 10
    vertex -90.22 -44.72 0
  endloop
endfacet
facet normal 0 -1 0
  outer loop
    vertex -61 -44.72 19.5
    vertex -61 -44.72 29.5
    vertex -70.5474515436737 -44.72 29.5
  endloop
endfacet
facet normal 0 -1 0
  outer loop
    vertex -65.5474515436737 -44.72 19.5
    vertex -70.5474515436737 -44.72 29.5
    vertex -83.124 -44.72 10
  endloop
endfacet
facet normal 0 -1 0
  outer loop
    vertex -78.124 -44.72 0
    vertex -83.124 -44.72 10
    vertex -90.22 -44.72 10
  endloop
endfacet
facet normal 0 0 1
  outer loop
    vertex -61 -32.08 29.5
    vertex -70.5474515436737 -32.08 29.5
    vertex -70.5474515436737 -44.72 29.5
  endloop
endfacet
facet normal -.840377067081416 0 .542002200294092
  outer loop
    vertex -70.5474515436737 -32.08 29.5
    vertex -83.124 -32.08 10
    vertex -83.124 -44.72 10
  endloop
endfacet
facet normal 0 0 1
  outer loop
    vertex -83.124 -32.08 10
    vertex -90.22 -32.08 10
    vertex -90.22 -44.72 10
  endloop
endfacet
facet normal 0 0 1
  outer loop
    vertex -61 -32.08 29.5
    vertex -70.5474515436737 -44.72 29.5
    vertex -61 -44.72 29.5
  endloop
endfacet
facet normal -.840377067081416 0 .542002200294092
  outer loop
    vertex -70.5474515436737 -32.08 29.5
    vertex -83.124 -44.72 10
    vertex -70.5474515436737 -44.72 29.5
  endloop
endfacet
facet normal 0 0 1
  outer loop
    vertex -83.124 -32.08 10
    vertex -90.22 -44.72 10
    vertex -83.124 -44.72 10
  endloop
endfacet
facet normal 0 0 -1
  outer loop
    vertex -61 -32.08 19.5
    vertex -65.5474515436737 -44.72 19.5
    vertex -65.5474515436737 -32.08 19.5
  endloop
endfacet
facet normal .840377067081416 0 -.542002200294092
  outer loop
    vertex -65.5474515436737 -32.08 19.5
    vertex -78.124 -44.72 0
    vertex -78.124 -32.08 0
  endloop
endfacet
facet normal 0 0 -1
  outer loop
    vertex -78.124 -32.08 0
    vertex -90.22 -44.72 0
    vertex -90.22 -32.08 0
  endloop
endfacet
facet normal 0 0 -1
  outer loop
    vertex -61 -32.08 19.5
    vertex -61 -44.72 19.5
    vertex -65.5474515436737 -44.72 19.5
  endloop
endfacet
facet normal .840377067081416 0 -.542002200294092
  outer loop
    vertex -65.5474515436737 -32.08 19.5
    vertex -65.5474515436737 -44.72 19.5
    vertex -78.124 -44.72 0
  endloop
endfacet
facet normal 0 0 -1
  outer loop
    vertex -78.124 -32.08 0
    vertex -78.124 -44.72 0
    vertex -90.22 -44.72 0
  endloop
endfacet
facet normal 1 0 0
  outer loop
    vertex 90.22 -44.72 10
    vertex 90.22 -44.72 0
    vertex 90.22 -32.08 0
  endloop
endfacet
facet normal 1 0 0
  outer loop
    vertex 90.22 -44.72 10
    vertex 90.22 -32.08 0
    vertex 90.22 -32.08 10
  endloop
endfacet
facet normal -1 0 0
  outer loop
    vertex 61 -32.08 29.5
    vertex 61 -32.08 19.5
    vertex 61 -44.72 19.5
  endloop
endfacet
facet normal -1 0 0
  outer loop
    vertex 61 -32.08 29.5
    vertex 61 -44.72 19.5
    vertex 61 -44.72 29.5
  endloop
endfacet
facet normal 0 -1 0
  outer loop
    vertex 61 -44.72 19.5
    vertex 65.5474515436737 -44.72 19.5
    vertex 70.5474515436737 -44.72 29.5
  endloop
endfacet
facet normal 0 -1 0
  outer loop
    vertex 65.5474515436737 -44.72 19.5
    vertex 78.124 -44.72 0
    vertex 83.124 -44.72 10
  endloop
endfacet
facet normal 0 -1 0
  outer loop
    vertex 78.124 -44.72 0
    vertex 90.22 -44.72 0
    vertex 90.22 -44.72 10
  endloop
endfacet
facet normal 0 -1 0
  outer loop
    vertex 61 -44.72 19.5
    vertex 70.5474515436737 -44.72 29.5
    vertex 61 -44.72 29.5
  endloop
endfacet
facet normal 0 -1 0
  outer loop
    vertex 65.5474515436737 -44.72 19.5
    vertex 83.124 -44.72 10
    vertex 70.5474515436737 -44.72 29.5
  endloop
endfacet
facet normal 0 -1 0
  outer loop
    vertex 78.124 -44.72 0
    vertex 90.22 -44.72 10
    vertex 83.124 -44.72 10
  endloop
endfacet
facet normal 0 1 0
  outer loop
    vertex 61 -32.08 19.5
    vertex 70.5474515436737 -32.08 29.5
    vertex 65.5474515436737 -32.08 19.5
  endloop
endfacet
facet normal 0 1 0
  outer loop
    vertex 65.5474515436737 -32.08 19.5
    vertex 83.124 -32.08 10
    vertex 78.124 -32.08 0
  endloop
endfacet
facet normal 0 1 0
  outer loop
    vertex 78.124 -32.08 0
    vertex 90.22 -32.08 10
    vertex 90.22 -32.08 0
  endloop
endfacet
facet normal 0 1 0
  outer loop
    vertex 61 -32.08 19.5
    vertex 61 -32.08 29.5
    vertex 70.5474515436737 -32.08 29.5
  endloop
endfacet
facet normal 0 1 0
  outer loop
    vertex 65.5474515436737 -32.08 19.5
    vertex 70.5474515436737 -32.08 29.5
    vertex 83.124 -32.08 10
  endloop
endfacet
facet normal 0 1 0
  outer loop
    vertex 78.124 -32.08 0
    vertex 83.124 -32.08 10
    vertex 90.22 -32.08 10
  endloop
endfacet
facet normal 0 0 1
  outer loop
    vertex 61 -44.72 29.5
    vertex 70.5474515436737 -44.72 29.5
    vertex 70.5474515436737 -32.08 29.5
  endloop
endfacet
facet normal .840377067081416 0 .542002200294092
  outer loop
    vertex 70.5474515436737 -44.72 29.5
    vertex 83.124 -44.72 10
    vertex 83.124 -32.08 10
  endloop
endfacet
facet normal 0 0 1
  outer loop
    vertex 83.124 -44.72 10
    vertex 90.22 -44.72 10
    vertex 90.22 -32.08 10
  endloop
endfacet
facet normal 0 0 1
  outer loop
    vertex 61 -44.72 29.5
    vertex 70.5474515436737 -32.08 29.5
    vertex 61 -32.08 29.5
  endloop
endfacet
facet normal .840377067081416 0 .542002200294092
  outer loop
    vertex 70.5474515436737 -44.72 29.5
    vertex 83.124 -32.08 10
    vertex 70.5474515436737 -32.08 29.5
  endloop
endfacet
facet normal 0 0 1
  outer loop
    vertex 83.124 -44.72 10
    vertex 90.22 -32.08 10
    vertex 83.124 -32.08 10
  endloop
endfacet
facet normal 0 0 -1
  outer loop
    vertex 61 -44.72 19.5
    vertex 65.5474515436737 -32.08 19.5
    vertex 65.5474515436737 -44.72 19.5
  endloop
endfacet
facet normal -.840377067081416 0 -.542002200294092
  outer loop
    vertex 65.5474515436737 -44.72 19.5
    vertex 78.124 -32.08 0
    vertex 78.124 -44.72 0
  endloop
endfacet
facet normal 0 0 -1
  outer loop
    vertex 78.124 -44.72 0
    vertex 90.22 -32.08 0
    vertex 90.22 -44.72 0
  endloop
endfacet
facet normal 0 0 -1
  outer loop
    vertex 61 -44.72 19.5
    vertex 61 -32.08 19.5
    vertex 65.5474515436737 -32.08 19.5
  endloop
endfacet
facet normal -.840377067081416 0 -.542002200294092
  outer loop
    vertex 65.5474515436737 -44.72 19.5
    vertex 65.5474515436737 -32.08 19.5
    vertex 78.124 -32.08 0
  endloop
endfacet
facet normal 0 0 -1
  outer loop
    vertex 78.124 -44.72 0
    vertex 78.124 -32.08 0
    vertex 90.22 -32.08 0
  endloop
endfacet
facet normal 1 0 0
  outer loop
    vertex 90.22 -19.12 10
    vertex 90.22 -19.12 0
    vertex 90.22 -6.48 0
  endloop
endfacet
facet normal 1 0 0
  outer loop
    vertex 90.22 -19.12 10
    vertex 90.22 -6.48 0
    vertex 90.22 -6.48 10
  endloop
endfacet
facet normal -1 0 0
  outer loop
    vertex 61 -6.48 29.5
    vertex 61 -6.48 19.5
    vertex 61 -19.12 19.5
  endloop
endfacet
facet normal -1 0 0
  outer loop
    vertex 61 -6.48 29.5
    vertex 61 -19.12 19.5
    vertex 61 -19.12 29.5
  endloop
endfacet
facet normal 0 -1 0
  outer loop
    vertex 61 -19.12 19.5
    vertex 65.5474515436737 -19.12 19.5
    vertex 70.5474515436737 -19.12 29.5
  endloop
endfacet
facet normal 0 -1 0
  outer loop
    vertex 65.5474515436737 -19.12 19.5
    vertex 78.124 -19.12 0
    vertex 83.124 -19.12 10
  endloop
endfacet
facet normal 0 -1 0
  outer loop
    vertex 78.124 -19.12 0
    vertex 90.22 -19.12 0
    vertex 90.22 -19.12 10
  endloop
endfacet
facet normal 0 -1 0
  outer loop
    vertex 61 -19.12 19.5
    vertex 70.5474515436737 -19.12 29.5
    vertex 61 -19.12 29.5
  endloop
endfacet
facet normal 0 -1 0
  outer loop
    vertex 65.5474515436737 -19.12 19.5
    vertex 83.124 -19.12 10
    vertex 70.5474515436737 -19.12 29.5
  endloop
endfacet
facet normal 0 -1 0
  outer loop
    vertex 78.124 -19.12 0
    vertex 90.22 -19.12 10
    vertex 83.124 -19.12 10
  endloop
endfacet
facet normal 0 1 0
  outer loop
    vertex 61 -6.48 19.5
    vertex 70.5474515436737 -6.48 29.5
    vertex 65.5474515436737 -6.48 19.5
  endloop
endfacet
facet normal 0 1 0
  outer loop
    vertex 65.5474515436737 -6.48 19.5
    vertex 83.124 -6.48 10
    vertex 78.124 -6.48 0
  endloop
endfacet
facet normal 0 1 0
  outer loop
    vertex 78.124 -6.48 0
    vertex 90.22 -6.48 10
    vertex 90.22 -6.48 0
  endloop
endfacet
facet normal 0 1 0
  outer loop
    vertex 61 -6.48 19.5
    vertex 61 -6.48 29.5
    vertex 70.5474515436737 -6.48 29.5
  endloop
endfacet
facet normal 0 1 0
  outer loop
    vertex 65.5474515436737 -6.48 19.5
    vertex 70.5474515436737 -6.48 29.5
    vertex 83.124 -6.48 10
  endloop
endfacet
facet normal 0 1 0
  outer loop
    vertex 78.124 -6.48 0
    vertex 83.124 -6.48 10
    vertex 90.22 -6.48 10
  endloop
endfacet
facet normal 0 0 1
  outer loop
    vertex 61 -19.12 29.5
    vertex 70.5474515436737 -19.12 29.5
    vertex 70.5474515436737 -6.48 29.5
  endloop
endfacet
facet normal .840377067081416 0 .542002200294092
  outer loop
    vertex 70.5474515436737 -19.12 29.5
    vertex 83.124 -19.12 10
    vertex 83.124 -6.48 10
  endloop
endfacet
facet normal 0 0 1
  outer loop
    vertex 83.124 -19.12 10
    vertex 90.22 -19.12 10
    vertex 90.22 -6.48 10
  endloop
endfacet
facet normal 0 0 1
  outer loop
    vertex 61 -19.12 29.5
    vertex 70.5474515436737 -6.48 29.5
    vertex 61 -6.48 29.5
  endloop
endfacet
facet normal .840377067081416 0 .542002200294092
  outer loop
    vertex 70.5474515436737 -19.12 29.5
    vertex 83.124 -6.48 10
    vertex 70.5474515436737 -6.48 29.5
  endloop
endfacet
facet normal 0 0 1
  outer loop
    vertex 83.124 -19.12 10
    vertex 90.22 -6.48 10
    vertex 83.124 -6.48 10
  endloop
endfacet
facet normal 0 0 -1
  outer loop
    vertex 61 -19.12 19.5
    vertex 65.5474515436737 -6.48 19.5
    vertex 65.5474515436737 -19.12 19.5
  endloop
endfacet
facet normal -.840377067081416 0 -.542002200294092
  outer loop
    vertex 65.5474515436737 -19.12 19.5
    vertex 78.124 -6.48 0
    vertex 78.124 -19.12 0
  endloop
endfacet
facet normal 0 0 -1
  outer loop
    vertex 78.124 -19.12 0
    vertex 90.22 -6.48 0
    vertex 90.22 -19.12 0
  endloop
endfacet
facet normal 0 0 -1
  outer loop
    vertex 61 -19.12 19.5
    vertex 61 -6.48 19.5
    vertex 65.5474515436737 -6.48 19.5
  endloop
endfacet
facet normal -.840377067081416 0 -.542002200294092
  outer loop
    vertex 65.5474515436737 -19.12 19.5
    vertex 65.5474515436737 -6.48 19.5
    vertex 78.124 -6.48 0
  endloop
endfacet
facet normal 0 0 -1
  outer loop
    vertex 78.124 -19.12 0
    vertex 78.124 -6.48 0
    vertex 90.22 -6.48 0
  endloop
endfacet
facet normal 1 0 0
  outer loop
    vertex 90.22 6.48 10
    vertex 90.22 6.48 0
    vertex 90.22 19.12 0
  endloop
endfacet
facet normal 1 0 0
  outer loop
    vertex 90.22 6.48 10
    vertex 90.22 19.12 0
    vertex 90.22 19.12 10
  endloop
endfacet
facet normal -1 0 0
  outer loop
    vertex 61 19.12 29.5
    vertex 61 19.12 19.5
    vertex 61 6.48000000000001 19.5
  endloop
endfacet
facet normal -1 0 0
  outer loop
    vertex 61 19.12 29.5
    vertex 61 6.48000000000001 19.5
    vertex 61 6.48000000000001 29.5
  endloop
endfacet
facet normal -4.49220919825346E-15 -1 3.31191870276688E-15
  outer loop
    vertex 61 6.48000000000001 19.5
    vertex 65.5474515436737 6.47999999999999 19.5
    vertex 70.5474515436737 6.48 29.5
  endloop
endfacet
facet normal 4.77375222473382E-16 -1 -2.38687611236691E-16
  outer loop
    vertex 65.5474515436737 6.47999999999999 19.5
    vertex 78.124 6.48 0
    vertex 83.124 6.48 10
  endloop
endfacet
facet normal 0 -1 0
  outer loop
    vertex 78.124 6.48 0
    vertex 90.22 6.48 0
    vertex 90.22 6.48 10
  endloop
endfacet
facet normal -1.02330580804834E-15 -1 0
  outer loop
    vertex 61 6.48000000000001 19.5
    vertex 70.5474515436737 6.48 29.5
    vertex 61 6.48000000000001 29.5
  endloop
endfacet
facet normal 9.30881683823094E-16 -1 6.00373261728603E-16
  outer loop
    vertex 65.5474515436737 6.47999999999999 19.5
    vertex 83.124 6.48 10
    vertex 70.5474515436737 6.48 29.5
  endloop
endfacet
facet normal 0 -1 0
  outer loop
    vertex 78.124 6.48 0
    vertex 90.22 6.48 10
    vertex 83.124 6.48 10
  endloop
endfacet
facet normal 0 1 0
  outer loop
    vertex 61 19.12 19.5
    vertex 70.5474515436737 19.12 29.5
    vertex 65.5474515436737 19.12 19.5
  endloop
endfacet
facet normal 0 1 0
  outer loop
    vertex 65.5474515436737 19.12 19.5
    vertex 83.124 19.12 10
    vertex 78.124 19.12 0
  endloop
endfacet
facet normal 0 1 0
  outer loop
    vertex 78.124 19.12 0
    vertex 90.22 19.12 10
    vertex 90.22 19.12 0
  endloop
endfacet
facet normal 0 1 0
  outer loop
    vertex 61 19.12 19.5
    vertex 61 19.12 29.5
    vertex 70.5474515436737 19.12 29.5
  endloop
endfacet
facet normal 0 1 0
  outer loop
    vertex 65.5474515436737 19.12 19.5
    vertex 70.5474515436737 19.12 29.5
    vertex 83.124 19.12 10
  endloop
endfacet
facet normal 0 1 0
  outer loop
    vertex 78.124 19.12 0
    vertex 83.124 19.12 10
    vertex 90.22 19.12 10
  endloop
endfacet
facet normal 0 0 1
  outer loop
    vertex 61 6.48000000000001 29.5
    vertex 70.5474515436737 6.48 29.5
    vertex 70.5474515436737 19.12 29.5
  endloop
endfacet
facet normal .840377067081416 0 .542002200294092
  outer loop
    vertex 70.5474515436737 6.48 29.5
    vertex 83.124 6.48 10
    vertex 83.124 19.12 10
  endloop
endfacet
facet normal 0 0 1
  outer loop
    vertex 83.124 6.48 10
    vertex 90.22 6.48 10
    vertex 90.22 19.12 10
  endloop
endfacet
facet normal 0 0 1
  outer loop
    vertex 61 6.48000000000001 29.5
    vertex 70.5474515436737 19.12 29.5
    vertex 61 19.12 29.5
  endloop
endfacet
facet normal .840377067081416 0 .542002200294092
  outer loop
    vertex 70.5474515436737 6.48 29.5
    vertex 83.124 19.12 10
    vertex 70.5474515436737 19.12 29.5
  endloop
endfacet
facet normal 0 0 1
  outer loop
    vertex 83.124 6.48 10
    vertex 90.22 19.12 10
    vertex 83.124 19.12 10
  endloop
endfacet
facet normal 0 0 -1
  outer loop
    vertex 61 6.48000000000001 19.5
    vertex 65.5474515436737 19.12 19.5
    vertex 65.5474515436737 6.47999999999999 19.5
  endloop
endfacet
facet normal -.840377067081416 0 -.542002200294092
  outer loop
    vertex 65.5474515436737 6.47999999999999 19.5
    vertex 78.124 19.12 0
    vertex 78.124 6.48 0
  endloop
endfacet
facet normal 0 0 -1
  outer loop
    vertex 78.124 6.48 0
    vertex 90.22 19.12 0
    vertex 90.22 6.48 0
  endloop
endfacet
facet normal 0 0 -1
  outer loop
    vertex 61 6.48000000000001 19.5
    vertex 61 19.12 19.5
    vertex 65.5474515436737 19.12 19.5
  endloop
endfacet
facet normal -.840377067081416 0 -.542002200294092
  outer loop
    vertex 65.5474515436737 6.47999999999999 19.5
    vertex 65.5474515436737 19.12 19.5
    vertex 78.124 19.12 0
  endloop
endfacet
facet normal 0 0 -1
  outer loop
    vertex 78.124 6.48 0
    vertex 78.124 19.12 0
    vertex 90.22 19.12 0
  endloop
endfacet
facet normal 1 0 0
  outer loop
    vertex 90.22 32.08 10
    vertex 90.22 32.08 0
    vertex 90.22 44.72 0
  endloop
endfacet
facet normal 1 0 0
  outer loop
    vertex 90.22 32.08 10
    vertex 90.22 44.72 0
    vertex 90.22 44.72 10
  endloop
endfacet
facet normal -1 0 0
  outer loop
    vertex 61 44.72 29.5
    vertex 61 44.72 19.5
    vertex 61 32.08 19.5
  endloop
endfacet
facet normal -1 0 0
  outer loop
    vertex 61 44.72 29.5
    vertex 61 32.08 19.5
    vertex 61 32.08 29.5
  endloop
endfacet
facet normal 0 -1 0
  outer loop
    vertex 61 32.08 19.5
    vertex 65.5474515436737 32.08 19.5
    vertex 70.5474515436737 32.08 29.5
  endloop
endfacet
facet normal 0 -1 0
  outer loop
    vertex 65.5474515436737 32.08 19.5
    vertex 78.124 32.08 0
    vertex 83.124 32.08 10
  endloop
endfacet
facet normal 0 -1 0
  outer loop
    vertex 78.124 32.08 0
    vertex 90.22 32.08 0
    vertex 90.22 32.08 10
  endloop
endfacet
facet normal 0 -1 0
  outer loop
    vertex 61 32.08 19.5
    vertex 70.5474515436737 32.08 29.5
    vertex 61 32.08 29.5
  endloop
endfacet
facet normal 0 -1 0
  outer loop
    vertex 65.5474515436737 32.08 19.5
    vertex 83.124 32.08 10
    vertex 70.5474515436737 32.08 29.5
  endloop
endfacet
facet normal 0 -1 0
  outer loop
    vertex 78.124 32.08 0
    vertex 90.22 32.08 10
    vertex 83.124 32.08 10
  endloop
endfacet
facet normal 0 1 0
  outer loop
    vertex 61 44.72 19.5
    vertex 70.5474515436737 44.72 29.5
    vertex 65.5474515436737 44.72 19.5
  endloop
endfacet
facet normal 0 1 0
  outer loop
    vertex 65.5474515436737 44.72 19.5
    vertex 83.124 44.72 10
    vertex 78.124 44.72 0
  endloop
endfacet
facet normal 0 1 0
  outer loop
    vertex 78.124 44.72 0
    vertex 90.22 44.72 10
    vertex 90.22 44.72 0
  endloop
endfacet
facet normal 0 1 0
  outer loop
    vertex 61 44.72 19.5
    vertex 61 44.72 29.5
    vertex 70.5474515436737 44.72 29.5
  endloop
endfacet
facet normal 0 1 0
  outer loop
    vertex 65.5474515436737 44.72 19.5
    vertex 70.5474515436737 44.72 29.5
    vertex 83.124 44.72 10
  endloop
endfacet
facet normal 0 1 0
  outer loop
    vertex 78.124 44.72 0
    vertex 83.124 44.72 10
    vertex 90.22 44.72 10
  endloop
endfacet
facet normal 0 0 1
  outer loop
    vertex 61 32.08 29.5
    vertex 70.5474515436737 32.08 29.5
    vertex 70.5474515436737 44.72 29.5
  endloop
endfacet
facet normal .840377067081416 0 .542002200294092
  outer loop
    vertex 70.5474515436737 32.08 29.5
    vertex 83.124 32.08 10
    vertex 83.124 44.72 10
  endloop
endfacet
facet normal 0 0 1
  outer loop
    vertex 83.124 32.08 10
    vertex 90.22 32.08 10
    vertex 90.22 44.72 10
  endloop
endfacet
facet normal 0 0 1
  outer loop
    vertex 61 32.08 29.5
    vertex 70.5474515436737 44.72 29.5
    vertex 61 44.72 29.5
  endloop
endfacet
facet normal .840377067081416 0 .542002200294092
  outer loop
    vertex 70.5474515436737 32.08 29.5
    vertex 83.124 44.72 10
    vertex 70.5474515436737 44.72 29.5
  endloop
endfacet
facet normal 0 0 1
  outer loop
    vertex 83.124 32.08 10
    vertex 90.22 44.72 10
    vertex 83.124 44.72 10
  endloop
endfacet
facet normal 0 0 -1
  outer loop
    vertex 61 32.08 19.5
    vertex 65.5474515436737 44.72 19.5
    vertex 65.5474515436737 32.08 19.5
  endloop
endfacet
facet normal -.840377067081416 0 -.542002200294092
  outer loop
    vertex 65.5474515436737 32.08 19.5
    vertex 78.124 44.72 0
    vertex 78.124 32.08 0
  endloop
endfacet
facet normal 0 0 -1
  outer loop
    vertex 78.124 32.08 0
    vertex 90.22 44.72 0
    vertex 90.22 32.08 0
  endloop
endfacet
facet normal 0 0 -1
  outer loop
    vertex 61 32.08 19.5
    vertex 61 44.72 19.5
    vertex 65.5474515436737 44.72 19.5
  endloop
endfacet
facet normal -.840377067081416 0 -.542002200294092
  outer loop
    vertex 65.5474515436737 32.08 19.5
    vertex 65.5474515436737 44.72 19.5
    vertex 78.124 44.72 0
  endloop
endfacet
facet normal 0 0 -1
  outer loop
    vertex 78.124 32.08 0
    vertex 78.124 44.72 0
    vertex 90.22 44.72 0
  endloop
endfacet
endsolid MSOP8
